<?xml version="1.0" encoding="utf-8" standalone="no"?>
<!DOCTYPE svg PUBLIC "-//W3C//DTD SVG 1.1//EN"
  "http://www.w3.org/Graphics/SVG/1.1/DTD/svg11.dtd">
<svg xmlns:xlink="http://www.w3.org/1999/xlink" width="469.19952pt" height="353.99952pt" viewBox="0 0 469.19952 353.99952" xmlns="http://www.w3.org/2000/svg" version="1.1">
 <metadata>
  <rdf:RDF xmlns:dc="http://purl.org/dc/elements/1.1/" xmlns:cc="http://creativecommons.org/ns#" xmlns:rdf="http://www.w3.org/1999/02/22-rdf-syntax-ns#">
   <cc:Work>
    <dc:type rdf:resource="http://purl.org/dc/dcmitype/StillImage"/>
    <dc:date>2026-07-03T12:19:33.970131</dc:date>
    <dc:format>image/svg+xml</dc:format>
    <dc:creator>
     <cc:Agent>
      <dc:title>made/written by /home/con/Scripts/stats/examples.pl called using "plt" in /home/con/perl5/perlbrew/perls/perl-5.42.2/lib/site_perl/5.42.2/x86_64-linux/Matplotlib/Simple.pm version 0.29</dc:title>
     </cc:Agent>
    </dc:creator>
   </cc:Work>
  </rdf:RDF>
 </metadata>
 <defs>
  <style type="text/css">*{stroke-linejoin: round; stroke-linecap: butt}</style>
 </defs>
 <g id="figure_1">
  <g id="patch_1">
   <path d="M 0 353.99952 
L 469.19952 353.99952 
L 469.19952 0 
L 0 0 
z
" style="fill: #ffffff"/>
  </g>
  <g id="axes_1">
   <g id="patch_2">
    <path d="M 118.375 315.798739 
L 285.43702 315.798739 
L 285.43702 40.319542 
L 118.375 40.319542 
z
" style="fill: #ffffff"/>
   </g>
   <g id="FillBetweenPolyCollection_1">
    <defs>
     <path id="m58dc0e775e" d="M 271.918511 -86.499082 
L 271.918511 -50.722563 
L 273.420568 -51.070846 
L 274.922624 -55.827812 
L 276.424681 -61.578997 
L 277.926737 -65.617553 
L 279.428794 -67.493713 
L 280.93085 -67.883248 
L 282.432907 -67.456715 
L 283.934963 -66.784167 
L 285.43702 -66.462212 
L 285.43702 -70.759433 
L 285.43702 -70.759433 
L 283.934963 -70.437478 
L 282.432907 -69.76493 
L 280.93085 -69.338397 
L 279.428794 -69.727932 
L 277.926737 -71.604092 
L 276.424681 -75.642648 
L 274.922624 -81.393833 
L 273.420568 -86.150799 
L 271.918511 -86.499082 
z
" style="stroke: #000000; stroke-opacity: 0.3"/>
    </defs>
    <g clip-path="url(#p1ee786ca16)">
     <use xlink:href="#m58dc0e775e" x="0" y="353.99952" style="fill: #1f77b4; fill-opacity: 0.3; stroke: #000000; stroke-opacity: 0.3"/>
    </g>
   </g>
   <g id="FillBetweenPolyCollection_2">
    <defs>
     <path id="m8974edd967" d="M 125.417756 -155.573175 
L 125.417756 -124.754546 
L 126.031045 -122.275601 
L 126.644334 -122.948996 
L 127.257624 -125.815012 
L 127.870913 -129.379418 
L 128.484202 -132.623998 
L 129.097491 -135.037554 
L 129.710781 -136.382612 
L 130.32407 -136.84379 
L 130.937359 -137.101675 
L 130.937359 -143.226046 
L 130.937359 -143.226046 
L 130.32407 -143.48393 
L 129.710781 -143.945109 
L 129.097491 -145.290167 
L 128.484202 -147.703723 
L 127.870913 -150.948303 
L 127.257624 -154.512709 
L 126.644334 -157.378725 
L 126.031045 -158.05212 
L 125.417756 -155.573175 
z
" style="stroke: #000000; stroke-opacity: 0.3"/>
    </defs>
    <g clip-path="url(#p1ee786ca16)">
     <use xlink:href="#m8974edd967" x="0" y="353.99952" style="fill: #1f77b4; fill-opacity: 0.3; stroke: #000000; stroke-opacity: 0.3"/>
    </g>
   </g>
   <g id="FillBetweenPolyCollection_3">
    <defs>
     <path id="me2d4637c7b" d="M 129.35326 -229.605158 
L 129.35326 -193.828639 
L 135.132306 -195.922458 
L 140.911351 -201.545173 
L 146.690397 -206.933056 
L 152.469442 -210.0422 
L 158.248488 -211.149831 
L 164.027533 -211.163187 
L 169.806579 -210.648611 
L 175.585624 -210.013172 
L 181.36467 -209.721595 
L 181.36467 -213.712202 
L 181.36467 -213.712202 
L 175.585624 -213.420624 
L 169.806579 -212.785185 
L 164.027533 -212.27061 
L 158.248488 -212.283966 
L 152.469442 -213.391597 
L 146.690397 -216.500741 
L 140.911351 -221.888624 
L 135.132306 -227.511339 
L 129.35326 -229.605158 
z
" style="stroke: #000000; stroke-opacity: 0.3"/>
    </defs>
    <g clip-path="url(#p1ee786ca16)">
     <use xlink:href="#me2d4637c7b" x="0" y="353.99952" style="fill: #1f77b4; fill-opacity: 0.3; stroke: #000000; stroke-opacity: 0.3"/>
    </g>
   </g>
   <g id="FillBetweenPolyCollection_4">
    <defs>
     <path id="m1d056b2993" d="M 165.164395 -294.845909 
L 165.164395 -271.693963 
L 165.365272 -267.93325 
L 165.566149 -265.703231 
L 165.767026 -265.381677 
L 165.967902 -267.001052 
L 166.168779 -269.989456 
L 166.369656 -273.078516 
L 166.570533 -275.269845 
L 166.77141 -276.678081 
L 166.972287 -278.034933 
L 166.972287 -288.504939 
L 166.972287 -288.504939 
L 166.77141 -289.861792 
L 166.570533 -291.270027 
L 166.369656 -293.461357 
L 166.168779 -296.550417 
L 165.967902 -299.538821 
L 165.767026 -301.158196 
L 165.566149 -300.836642 
L 165.365272 -298.606622 
L 165.164395 -294.845909 
z
" style="stroke: #000000; stroke-opacity: 0.3"/>
    </defs>
    <g clip-path="url(#p1ee786ca16)">
     <use xlink:href="#m1d056b2993" x="0" y="353.99952" style="fill: #1f77b4; fill-opacity: 0.3; stroke: #000000; stroke-opacity: 0.3"/>
    </g>
   </g>
   <g id="matplotlib.axis_1">
    <g id="xtick_1">
     <g id="line2d_1">
      <defs>
       <path id="m3edf449449" d="M 0 0 
L 0 3.5 
" style="stroke: #000000; stroke-width: 0.8"/>
      </defs>
      <g>
       <use xlink:href="#m3edf449449" x="147.845278" y="315.798739" style="stroke: #000000; stroke-width: 0.8"/>
      </g>
     </g>
     <g id="text_1">
      <!-- 0.0025 -->
      <g transform="translate(130.349966 330.396395) scale(0.1 -0.1)">
       <defs>
        <path id="DejaVuSans-13" d="M 2034 4250 
Q 1547 4250 1301 3770 
Q 1056 3291 1056 2328 
Q 1056 1369 1301 889 
Q 1547 409 2034 409 
Q 2525 409 2770 889 
Q 3016 1369 3016 2328 
Q 3016 3291 2770 3770 
Q 2525 4250 2034 4250 
z
M 2034 4750 
Q 2819 4750 3233 4129 
Q 3647 3509 3647 2328 
Q 3647 1150 3233 529 
Q 2819 -91 2034 -91 
Q 1250 -91 836 529 
Q 422 1150 422 2328 
Q 422 3509 836 4129 
Q 1250 4750 2034 4750 
z
" transform="scale(0.015625)"/>
        <path id="DejaVuSans-11" d="M 684 794 
L 1344 794 
L 1344 0 
L 684 0 
L 684 794 
z
" transform="scale(0.015625)"/>
        <path id="DejaVuSans-15" d="M 1228 531 
L 3431 531 
L 3431 0 
L 469 0 
L 469 531 
Q 828 903 1448 1529 
Q 2069 2156 2228 2338 
Q 2531 2678 2651 2914 
Q 2772 3150 2772 3378 
Q 2772 3750 2511 3984 
Q 2250 4219 1831 4219 
Q 1534 4219 1204 4116 
Q 875 4013 500 3803 
L 500 4441 
Q 881 4594 1212 4672 
Q 1544 4750 1819 4750 
Q 2544 4750 2975 4387 
Q 3406 4025 3406 3419 
Q 3406 3131 3298 2873 
Q 3191 2616 2906 2266 
Q 2828 2175 2409 1742 
Q 1991 1309 1228 531 
z
" transform="scale(0.015625)"/>
        <path id="DejaVuSans-18" d="M 691 4666 
L 3169 4666 
L 3169 4134 
L 1269 4134 
L 1269 2991 
Q 1406 3038 1543 3061 
Q 1681 3084 1819 3084 
Q 2600 3084 3056 2656 
Q 3513 2228 3513 1497 
Q 3513 744 3044 326 
Q 2575 -91 1722 -91 
Q 1428 -91 1123 -41 
Q 819 9 494 109 
L 494 744 
Q 775 591 1075 516 
Q 1375 441 1709 441 
Q 2250 441 2565 725 
Q 2881 1009 2881 1497 
Q 2881 1984 2565 2268 
Q 2250 2553 1709 2553 
Q 1456 2553 1204 2497 
Q 953 2441 691 2322 
L 691 4666 
z
" transform="scale(0.015625)"/>
       </defs>
       <use xlink:href="#DejaVuSans-13"/>
       <use xlink:href="#DejaVuSans-11" transform="translate(63.625 0)"/>
       <use xlink:href="#DejaVuSans-13" transform="translate(95.40625 0)"/>
       <use xlink:href="#DejaVuSans-13" transform="translate(159.03125 0)"/>
       <use xlink:href="#DejaVuSans-15" transform="translate(222.65625 0)"/>
       <use xlink:href="#DejaVuSans-18" transform="translate(286.28125 0)"/>
      </g>
     </g>
    </g>
    <g id="xtick_2">
     <g id="line2d_2">
      <g>
       <use xlink:href="#m3edf449449" x="184.943377" y="315.798739" style="stroke: #000000; stroke-width: 0.8"/>
      </g>
     </g>
     <g id="text_2">
      <!-- 0.0050 -->
      <g transform="translate(167.448065 330.396395) scale(0.1 -0.1)">
       <use xlink:href="#DejaVuSans-13"/>
       <use xlink:href="#DejaVuSans-11" transform="translate(63.625 0)"/>
       <use xlink:href="#DejaVuSans-13" transform="translate(95.40625 0)"/>
       <use xlink:href="#DejaVuSans-13" transform="translate(159.03125 0)"/>
       <use xlink:href="#DejaVuSans-18" transform="translate(222.65625 0)"/>
       <use xlink:href="#DejaVuSans-13" transform="translate(286.28125 0)"/>
      </g>
     </g>
    </g>
    <g id="xtick_3">
     <g id="line2d_3">
      <g>
       <use xlink:href="#m3edf449449" x="222.041477" y="315.798739" style="stroke: #000000; stroke-width: 0.8"/>
      </g>
     </g>
     <g id="text_3">
      <!-- 0.0075 -->
      <g transform="translate(204.546164 330.396395) scale(0.1 -0.1)">
       <defs>
        <path id="DejaVuSans-1a" d="M 525 4666 
L 3525 4666 
L 3525 4397 
L 1831 0 
L 1172 0 
L 2766 4134 
L 525 4134 
L 525 4666 
z
" transform="scale(0.015625)"/>
       </defs>
       <use xlink:href="#DejaVuSans-13"/>
       <use xlink:href="#DejaVuSans-11" transform="translate(63.625 0)"/>
       <use xlink:href="#DejaVuSans-13" transform="translate(95.40625 0)"/>
       <use xlink:href="#DejaVuSans-13" transform="translate(159.03125 0)"/>
       <use xlink:href="#DejaVuSans-1a" transform="translate(222.65625 0)"/>
       <use xlink:href="#DejaVuSans-18" transform="translate(286.28125 0)"/>
      </g>
     </g>
    </g>
    <g id="xtick_4">
     <g id="line2d_4">
      <g>
       <use xlink:href="#m3edf449449" x="259.139576" y="315.798739" style="stroke: #000000; stroke-width: 0.8"/>
      </g>
     </g>
     <g id="text_4">
      <!-- 0.0100 -->
      <g transform="translate(241.644263 330.396395) scale(0.1 -0.1)">
       <defs>
        <path id="DejaVuSans-14" d="M 794 531 
L 1825 531 
L 1825 4091 
L 703 3866 
L 703 4441 
L 1819 4666 
L 2450 4666 
L 2450 531 
L 3481 531 
L 3481 0 
L 794 0 
L 794 531 
z
" transform="scale(0.015625)"/>
       </defs>
       <use xlink:href="#DejaVuSans-13"/>
       <use xlink:href="#DejaVuSans-11" transform="translate(63.625 0)"/>
       <use xlink:href="#DejaVuSans-13" transform="translate(95.40625 0)"/>
       <use xlink:href="#DejaVuSans-14" transform="translate(159.03125 0)"/>
       <use xlink:href="#DejaVuSans-13" transform="translate(222.65625 0)"/>
       <use xlink:href="#DejaVuSans-13" transform="translate(286.28125 0)"/>
      </g>
     </g>
    </g>
    <g id="text_5">
     <!-- seconds -->
     <g transform="translate(181.46851 344.397176) scale(0.1 -0.1)">
      <defs>
       <path id="DejaVuSans-56" d="M 2834 3397 
L 2834 2853 
Q 2591 2978 2328 3040 
Q 2066 3103 1784 3103 
Q 1356 3103 1142 2972 
Q 928 2841 928 2578 
Q 928 2378 1081 2264 
Q 1234 2150 1697 2047 
L 1894 2003 
Q 2506 1872 2764 1633 
Q 3022 1394 3022 966 
Q 3022 478 2636 193 
Q 2250 -91 1575 -91 
Q 1294 -91 989 -36 
Q 684 19 347 128 
L 347 722 
Q 666 556 975 473 
Q 1284 391 1588 391 
Q 1994 391 2212 530 
Q 2431 669 2431 922 
Q 2431 1156 2273 1281 
Q 2116 1406 1581 1522 
L 1381 1569 
Q 847 1681 609 1914 
Q 372 2147 372 2553 
Q 372 3047 722 3315 
Q 1072 3584 1716 3584 
Q 2034 3584 2315 3537 
Q 2597 3491 2834 3397 
z
" transform="scale(0.015625)"/>
       <path id="DejaVuSans-48" d="M 3597 1894 
L 3597 1613 
L 953 1613 
Q 991 1019 1311 708 
Q 1631 397 2203 397 
Q 2534 397 2845 478 
Q 3156 559 3463 722 
L 3463 178 
Q 3153 47 2828 -22 
Q 2503 -91 2169 -91 
Q 1331 -91 842 396 
Q 353 884 353 1716 
Q 353 2575 817 3079 
Q 1281 3584 2069 3584 
Q 2775 3584 3186 3129 
Q 3597 2675 3597 1894 
z
M 3022 2063 
Q 3016 2534 2758 2815 
Q 2500 3097 2075 3097 
Q 1594 3097 1305 2825 
Q 1016 2553 972 2059 
L 3022 2063 
z
" transform="scale(0.015625)"/>
       <path id="DejaVuSans-46" d="M 3122 3366 
L 3122 2828 
Q 2878 2963 2633 3030 
Q 2388 3097 2138 3097 
Q 1578 3097 1268 2742 
Q 959 2388 959 1747 
Q 959 1106 1268 751 
Q 1578 397 2138 397 
Q 2388 397 2633 464 
Q 2878 531 3122 666 
L 3122 134 
Q 2881 22 2623 -34 
Q 2366 -91 2075 -91 
Q 1284 -91 818 406 
Q 353 903 353 1747 
Q 353 2603 823 3093 
Q 1294 3584 2113 3584 
Q 2378 3584 2631 3529 
Q 2884 3475 3122 3366 
z
" transform="scale(0.015625)"/>
       <path id="DejaVuSans-52" d="M 1959 3097 
Q 1497 3097 1228 2736 
Q 959 2375 959 1747 
Q 959 1119 1226 758 
Q 1494 397 1959 397 
Q 2419 397 2687 759 
Q 2956 1122 2956 1747 
Q 2956 2369 2687 2733 
Q 2419 3097 1959 3097 
z
M 1959 3584 
Q 2709 3584 3137 3096 
Q 3566 2609 3566 1747 
Q 3566 888 3137 398 
Q 2709 -91 1959 -91 
Q 1206 -91 779 398 
Q 353 888 353 1747 
Q 353 2609 779 3096 
Q 1206 3584 1959 3584 
z
" transform="scale(0.015625)"/>
       <path id="DejaVuSans-51" d="M 3513 2113 
L 3513 0 
L 2938 0 
L 2938 2094 
Q 2938 2591 2744 2837 
Q 2550 3084 2163 3084 
Q 1697 3084 1428 2787 
Q 1159 2491 1159 1978 
L 1159 0 
L 581 0 
L 581 3500 
L 1159 3500 
L 1159 2956 
Q 1366 3272 1645 3428 
Q 1925 3584 2291 3584 
Q 2894 3584 3203 3211 
Q 3513 2838 3513 2113 
z
" transform="scale(0.015625)"/>
       <path id="DejaVuSans-47" d="M 2906 2969 
L 2906 4863 
L 3481 4863 
L 3481 0 
L 2906 0 
L 2906 525 
Q 2725 213 2448 61 
Q 2172 -91 1784 -91 
Q 1150 -91 751 415 
Q 353 922 353 1747 
Q 353 2572 751 3078 
Q 1150 3584 1784 3584 
Q 2172 3584 2448 3432 
Q 2725 3281 2906 2969 
z
M 947 1747 
Q 947 1113 1208 752 
Q 1469 391 1925 391 
Q 2381 391 2643 752 
Q 2906 1113 2906 1747 
Q 2906 2381 2643 2742 
Q 2381 3103 1925 3103 
Q 1469 3103 1208 2742 
Q 947 2381 947 1747 
z
" transform="scale(0.015625)"/>
      </defs>
      <use xlink:href="#DejaVuSans-56"/>
      <use xlink:href="#DejaVuSans-48" transform="translate(52.09375 0)"/>
      <use xlink:href="#DejaVuSans-46" transform="translate(113.625 0)"/>
      <use xlink:href="#DejaVuSans-52" transform="translate(168.609375 0)"/>
      <use xlink:href="#DejaVuSans-51" transform="translate(229.796875 0)"/>
      <use xlink:href="#DejaVuSans-47" transform="translate(293.171875 0)"/>
      <use xlink:href="#DejaVuSans-56" transform="translate(356.65625 0)"/>
     </g>
    </g>
   </g>
   <g id="matplotlib.axis_2">
    <g id="ytick_1">
     <g id="line2d_5">
      <defs>
       <path id="m4923f91577" d="M 0 0 
L -3.5 0 
" style="stroke: #000000; stroke-width: 0.8"/>
      </defs>
      <g>
       <use xlink:href="#m4923f91577" x="118.375" y="285.388698" style="stroke: #000000; stroke-width: 0.8"/>
      </g>
     </g>
     <g id="text_6">
      <!-- Perl5.42.2 (10) -->
      <g transform="translate(37.146875 289.187916) scale(0.1 -0.1)">
       <defs>
        <path id="DejaVuSans-33" d="M 1259 4147 
L 1259 2394 
L 2053 2394 
Q 2494 2394 2734 2622 
Q 2975 2850 2975 3272 
Q 2975 3691 2734 3919 
Q 2494 4147 2053 4147 
L 1259 4147 
z
M 628 4666 
L 2053 4666 
Q 2838 4666 3239 4311 
Q 3641 3956 3641 3272 
Q 3641 2581 3239 2228 
Q 2838 1875 2053 1875 
L 1259 1875 
L 1259 0 
L 628 0 
L 628 4666 
z
" transform="scale(0.015625)"/>
        <path id="DejaVuSans-55" d="M 2631 2963 
Q 2534 3019 2420 3045 
Q 2306 3072 2169 3072 
Q 1681 3072 1420 2755 
Q 1159 2438 1159 1844 
L 1159 0 
L 581 0 
L 581 3500 
L 1159 3500 
L 1159 2956 
Q 1341 3275 1631 3429 
Q 1922 3584 2338 3584 
Q 2397 3584 2469 3576 
Q 2541 3569 2628 3553 
L 2631 2963 
z
" transform="scale(0.015625)"/>
        <path id="DejaVuSans-4f" d="M 603 4863 
L 1178 4863 
L 1178 0 
L 603 0 
L 603 4863 
z
" transform="scale(0.015625)"/>
        <path id="DejaVuSans-17" d="M 2419 4116 
L 825 1625 
L 2419 1625 
L 2419 4116 
z
M 2253 4666 
L 3047 4666 
L 3047 1625 
L 3713 1625 
L 3713 1100 
L 3047 1100 
L 3047 0 
L 2419 0 
L 2419 1100 
L 313 1100 
L 313 1709 
L 2253 4666 
z
" transform="scale(0.015625)"/>
        <path id="DejaVuSans-3" transform="scale(0.015625)"/>
        <path id="DejaVuSans-b" d="M 1984 4856 
Q 1566 4138 1362 3434 
Q 1159 2731 1159 2009 
Q 1159 1288 1364 580 
Q 1569 -128 1984 -844 
L 1484 -844 
Q 1016 -109 783 600 
Q 550 1309 550 2009 
Q 550 2706 781 3412 
Q 1013 4119 1484 4856 
L 1984 4856 
z
" transform="scale(0.015625)"/>
        <path id="DejaVuSans-c" d="M 513 4856 
L 1013 4856 
Q 1481 4119 1714 3412 
Q 1947 2706 1947 2009 
Q 1947 1309 1714 600 
Q 1481 -109 1013 -844 
L 513 -844 
Q 928 -128 1133 580 
Q 1338 1288 1338 2009 
Q 1338 2731 1133 3434 
Q 928 4138 513 4856 
z
" transform="scale(0.015625)"/>
       </defs>
       <use xlink:href="#DejaVuSans-33"/>
       <use xlink:href="#DejaVuSans-48" transform="translate(56.734375 0)"/>
       <use xlink:href="#DejaVuSans-55" transform="translate(118.265625 0)"/>
       <use xlink:href="#DejaVuSans-4f" transform="translate(159.375 0)"/>
       <use xlink:href="#DejaVuSans-18" transform="translate(187.15625 0)"/>
       <use xlink:href="#DejaVuSans-11" transform="translate(250.78125 0)"/>
       <use xlink:href="#DejaVuSans-17" transform="translate(282.5625 0)"/>
       <use xlink:href="#DejaVuSans-15" transform="translate(346.1875 0)"/>
       <use xlink:href="#DejaVuSans-11" transform="translate(409.8125 0)"/>
       <use xlink:href="#DejaVuSans-15" transform="translate(441.59375 0)"/>
       <use xlink:href="#DejaVuSans-3" transform="translate(505.21875 0)"/>
       <use xlink:href="#DejaVuSans-b" transform="translate(537 0)"/>
       <use xlink:href="#DejaVuSans-14" transform="translate(576.015625 0)"/>
       <use xlink:href="#DejaVuSans-13" transform="translate(639.640625 0)"/>
       <use xlink:href="#DejaVuSans-c" transform="translate(703.265625 0)"/>
      </g>
     </g>
    </g>
    <g id="ytick_2">
     <g id="line2d_6">
      <g>
       <use xlink:href="#m4923f91577" x="118.375" y="213.83566" style="stroke: #000000; stroke-width: 0.8"/>
      </g>
     </g>
     <g id="text_7">
      <!-- Python3.14.2 (10) -->
      <g transform="translate(21.2 217.634878) scale(0.1 -0.1)">
       <defs>
        <path id="DejaVuSans-5c" d="M 2059 -325 
Q 1816 -950 1584 -1140 
Q 1353 -1331 966 -1331 
L 506 -1331 
L 506 -850 
L 844 -850 
Q 1081 -850 1212 -737 
Q 1344 -625 1503 -206 
L 1606 56 
L 191 3500 
L 800 3500 
L 1894 763 
L 2988 3500 
L 3597 3500 
L 2059 -325 
z
" transform="scale(0.015625)"/>
        <path id="DejaVuSans-57" d="M 1172 4494 
L 1172 3500 
L 2356 3500 
L 2356 3053 
L 1172 3053 
L 1172 1153 
Q 1172 725 1289 603 
Q 1406 481 1766 481 
L 2356 481 
L 2356 0 
L 1766 0 
Q 1100 0 847 248 
Q 594 497 594 1153 
L 594 3053 
L 172 3053 
L 172 3500 
L 594 3500 
L 594 4494 
L 1172 4494 
z
" transform="scale(0.015625)"/>
        <path id="DejaVuSans-4b" d="M 3513 2113 
L 3513 0 
L 2938 0 
L 2938 2094 
Q 2938 2591 2744 2837 
Q 2550 3084 2163 3084 
Q 1697 3084 1428 2787 
Q 1159 2491 1159 1978 
L 1159 0 
L 581 0 
L 581 4863 
L 1159 4863 
L 1159 2956 
Q 1366 3272 1645 3428 
Q 1925 3584 2291 3584 
Q 2894 3584 3203 3211 
Q 3513 2838 3513 2113 
z
" transform="scale(0.015625)"/>
        <path id="DejaVuSans-16" d="M 2597 2516 
Q 3050 2419 3304 2112 
Q 3559 1806 3559 1356 
Q 3559 666 3084 287 
Q 2609 -91 1734 -91 
Q 1441 -91 1130 -33 
Q 819 25 488 141 
L 488 750 
Q 750 597 1062 519 
Q 1375 441 1716 441 
Q 2309 441 2620 675 
Q 2931 909 2931 1356 
Q 2931 1769 2642 2001 
Q 2353 2234 1838 2234 
L 1294 2234 
L 1294 2753 
L 1863 2753 
Q 2328 2753 2575 2939 
Q 2822 3125 2822 3475 
Q 2822 3834 2567 4026 
Q 2313 4219 1838 4219 
Q 1578 4219 1281 4162 
Q 984 4106 628 3988 
L 628 4550 
Q 988 4650 1302 4700 
Q 1616 4750 1894 4750 
Q 2613 4750 3031 4423 
Q 3450 4097 3450 3541 
Q 3450 3153 3228 2886 
Q 3006 2619 2597 2516 
z
" transform="scale(0.015625)"/>
       </defs>
       <use xlink:href="#DejaVuSans-33"/>
       <use xlink:href="#DejaVuSans-5c" transform="translate(60.296875 0)"/>
       <use xlink:href="#DejaVuSans-57" transform="translate(119.484375 0)"/>
       <use xlink:href="#DejaVuSans-4b" transform="translate(158.6875 0)"/>
       <use xlink:href="#DejaVuSans-52" transform="translate(222.0625 0)"/>
       <use xlink:href="#DejaVuSans-51" transform="translate(283.25 0)"/>
       <use xlink:href="#DejaVuSans-16" transform="translate(346.625 0)"/>
       <use xlink:href="#DejaVuSans-11" transform="translate(410.25 0)"/>
       <use xlink:href="#DejaVuSans-14" transform="translate(442.03125 0)"/>
       <use xlink:href="#DejaVuSans-17" transform="translate(505.65625 0)"/>
       <use xlink:href="#DejaVuSans-11" transform="translate(569.28125 0)"/>
       <use xlink:href="#DejaVuSans-15" transform="translate(601.0625 0)"/>
       <use xlink:href="#DejaVuSans-3" transform="translate(664.6875 0)"/>
       <use xlink:href="#DejaVuSans-b" transform="translate(696.46875 0)"/>
       <use xlink:href="#DejaVuSans-14" transform="translate(735.484375 0)"/>
       <use xlink:href="#DejaVuSans-13" transform="translate(799.109375 0)"/>
       <use xlink:href="#DejaVuSans-c" transform="translate(862.734375 0)"/>
      </g>
     </g>
    </g>
    <g id="ytick_3">
     <g id="line2d_7">
      <g>
       <use xlink:href="#m4923f91577" x="118.375" y="142.282622" style="stroke: #000000; stroke-width: 0.8"/>
      </g>
     </g>
     <g id="text_8">
      <!-- R4.3.3 (10) -->
      <g transform="translate(55.276563 146.08145) scale(0.1 -0.1)">
       <defs>
        <path id="DejaVuSans-35" d="M 2841 2188 
Q 3044 2119 3236 1894 
Q 3428 1669 3622 1275 
L 4263 0 
L 3584 0 
L 2988 1197 
Q 2756 1666 2539 1819 
Q 2322 1972 1947 1972 
L 1259 1972 
L 1259 0 
L 628 0 
L 628 4666 
L 2053 4666 
Q 2853 4666 3247 4331 
Q 3641 3997 3641 3322 
Q 3641 2881 3436 2590 
Q 3231 2300 2841 2188 
z
M 1259 4147 
L 1259 2491 
L 2053 2491 
Q 2509 2491 2742 2702 
Q 2975 2913 2975 3322 
Q 2975 3731 2742 3939 
Q 2509 4147 2053 4147 
L 1259 4147 
z
" transform="scale(0.015625)"/>
       </defs>
       <use xlink:href="#DejaVuSans-35"/>
       <use xlink:href="#DejaVuSans-17" transform="translate(69.484375 0)"/>
       <use xlink:href="#DejaVuSans-11" transform="translate(133.109375 0)"/>
       <use xlink:href="#DejaVuSans-16" transform="translate(164.890625 0)"/>
       <use xlink:href="#DejaVuSans-11" transform="translate(228.515625 0)"/>
       <use xlink:href="#DejaVuSans-16" transform="translate(260.296875 0)"/>
       <use xlink:href="#DejaVuSans-3" transform="translate(323.921875 0)"/>
       <use xlink:href="#DejaVuSans-b" transform="translate(355.703125 0)"/>
       <use xlink:href="#DejaVuSans-14" transform="translate(394.71875 0)"/>
       <use xlink:href="#DejaVuSans-13" transform="translate(458.34375 0)"/>
       <use xlink:href="#DejaVuSans-c" transform="translate(521.96875 0)"/>
      </g>
     </g>
    </g>
    <g id="ytick_4">
     <g id="line2d_8">
      <g>
       <use xlink:href="#m4923f91577" x="118.375" y="70.729584" style="stroke: #000000; stroke-width: 0.8"/>
      </g>
     </g>
     <g id="text_9">
      <!-- Stats::LikeR (10) -->
      <g transform="translate(28.51875 74.528802) scale(0.1 -0.1)">
       <defs>
        <path id="DejaVuSans-36" d="M 3425 4513 
L 3425 3897 
Q 3066 4069 2747 4153 
Q 2428 4238 2131 4238 
Q 1616 4238 1336 4038 
Q 1056 3838 1056 3469 
Q 1056 3159 1242 3001 
Q 1428 2844 1947 2747 
L 2328 2669 
Q 3034 2534 3370 2195 
Q 3706 1856 3706 1288 
Q 3706 609 3251 259 
Q 2797 -91 1919 -91 
Q 1588 -91 1214 -16 
Q 841 59 441 206 
L 441 856 
Q 825 641 1194 531 
Q 1563 422 1919 422 
Q 2459 422 2753 634 
Q 3047 847 3047 1241 
Q 3047 1584 2836 1778 
Q 2625 1972 2144 2069 
L 1759 2144 
Q 1053 2284 737 2584 
Q 422 2884 422 3419 
Q 422 4038 858 4394 
Q 1294 4750 2059 4750 
Q 2388 4750 2728 4690 
Q 3069 4631 3425 4513 
z
" transform="scale(0.015625)"/>
        <path id="DejaVuSans-44" d="M 2194 1759 
Q 1497 1759 1228 1600 
Q 959 1441 959 1056 
Q 959 750 1161 570 
Q 1363 391 1709 391 
Q 2188 391 2477 730 
Q 2766 1069 2766 1631 
L 2766 1759 
L 2194 1759 
z
M 3341 1997 
L 3341 0 
L 2766 0 
L 2766 531 
Q 2569 213 2275 61 
Q 1981 -91 1556 -91 
Q 1019 -91 701 211 
Q 384 513 384 1019 
Q 384 1609 779 1909 
Q 1175 2209 1959 2209 
L 2766 2209 
L 2766 2266 
Q 2766 2663 2505 2880 
Q 2244 3097 1772 3097 
Q 1472 3097 1187 3025 
Q 903 2953 641 2809 
L 641 3341 
Q 956 3463 1253 3523 
Q 1550 3584 1831 3584 
Q 2591 3584 2966 3190 
Q 3341 2797 3341 1997 
z
" transform="scale(0.015625)"/>
        <path id="DejaVuSans-1d" d="M 750 794 
L 1409 794 
L 1409 0 
L 750 0 
L 750 794 
z
M 750 3309 
L 1409 3309 
L 1409 2516 
L 750 2516 
L 750 3309 
z
" transform="scale(0.015625)"/>
        <path id="DejaVuSans-2f" d="M 628 4666 
L 1259 4666 
L 1259 531 
L 3531 531 
L 3531 0 
L 628 0 
L 628 4666 
z
" transform="scale(0.015625)"/>
        <path id="DejaVuSans-4c" d="M 603 3500 
L 1178 3500 
L 1178 0 
L 603 0 
L 603 3500 
z
M 603 4863 
L 1178 4863 
L 1178 4134 
L 603 4134 
L 603 4863 
z
" transform="scale(0.015625)"/>
        <path id="DejaVuSans-4e" d="M 581 4863 
L 1159 4863 
L 1159 1991 
L 2875 3500 
L 3609 3500 
L 1753 1863 
L 3688 0 
L 2938 0 
L 1159 1709 
L 1159 0 
L 581 0 
L 581 4863 
z
" transform="scale(0.015625)"/>
       </defs>
       <use xlink:href="#DejaVuSans-36"/>
       <use xlink:href="#DejaVuSans-57" transform="translate(63.484375 0)"/>
       <use xlink:href="#DejaVuSans-44" transform="translate(102.6875 0)"/>
       <use xlink:href="#DejaVuSans-57" transform="translate(163.96875 0)"/>
       <use xlink:href="#DejaVuSans-56" transform="translate(203.171875 0)"/>
       <use xlink:href="#DejaVuSans-1d" transform="translate(255.265625 0)"/>
       <use xlink:href="#DejaVuSans-1d" transform="translate(288.953125 0)"/>
       <use xlink:href="#DejaVuSans-2f" transform="translate(322.640625 0)"/>
       <use xlink:href="#DejaVuSans-4c" transform="translate(378.359375 0)"/>
       <use xlink:href="#DejaVuSans-4e" transform="translate(406.140625 0)"/>
       <use xlink:href="#DejaVuSans-48" transform="translate(460.484375 0)"/>
       <use xlink:href="#DejaVuSans-35" transform="translate(522.015625 0)"/>
       <use xlink:href="#DejaVuSans-3" transform="translate(591.5 0)"/>
       <use xlink:href="#DejaVuSans-b" transform="translate(623.28125 0)"/>
       <use xlink:href="#DejaVuSans-14" transform="translate(662.296875 0)"/>
       <use xlink:href="#DejaVuSans-13" transform="translate(725.921875 0)"/>
       <use xlink:href="#DejaVuSans-c" transform="translate(789.546875 0)"/>
      </g>
     </g>
    </g>
    <g id="text_10">
     <!-- Language -->
     <g transform="translate(14.797656 202.735703) rotate(-90) scale(0.1 -0.1)">
      <defs>
       <path id="DejaVuSans-4a" d="M 2906 1791 
Q 2906 2416 2648 2759 
Q 2391 3103 1925 3103 
Q 1463 3103 1205 2759 
Q 947 2416 947 1791 
Q 947 1169 1205 825 
Q 1463 481 1925 481 
Q 2391 481 2648 825 
Q 2906 1169 2906 1791 
z
M 3481 434 
Q 3481 -459 3084 -895 
Q 2688 -1331 1869 -1331 
Q 1566 -1331 1297 -1286 
Q 1028 -1241 775 -1147 
L 775 -588 
Q 1028 -725 1275 -790 
Q 1522 -856 1778 -856 
Q 2344 -856 2625 -561 
Q 2906 -266 2906 331 
L 2906 616 
Q 2728 306 2450 153 
Q 2172 0 1784 0 
Q 1141 0 747 490 
Q 353 981 353 1791 
Q 353 2603 747 3093 
Q 1141 3584 1784 3584 
Q 2172 3584 2450 3431 
Q 2728 3278 2906 2969 
L 2906 3500 
L 3481 3500 
L 3481 434 
z
" transform="scale(0.015625)"/>
       <path id="DejaVuSans-58" d="M 544 1381 
L 544 3500 
L 1119 3500 
L 1119 1403 
Q 1119 906 1312 657 
Q 1506 409 1894 409 
Q 2359 409 2629 706 
Q 2900 1003 2900 1516 
L 2900 3500 
L 3475 3500 
L 3475 0 
L 2900 0 
L 2900 538 
Q 2691 219 2414 64 
Q 2138 -91 1772 -91 
Q 1169 -91 856 284 
Q 544 659 544 1381 
z
M 1991 3584 
L 1991 3584 
z
" transform="scale(0.015625)"/>
      </defs>
      <use xlink:href="#DejaVuSans-2f"/>
      <use xlink:href="#DejaVuSans-44" transform="translate(55.71875 0)"/>
      <use xlink:href="#DejaVuSans-51" transform="translate(117 0)"/>
      <use xlink:href="#DejaVuSans-4a" transform="translate(180.375 0)"/>
      <use xlink:href="#DejaVuSans-58" transform="translate(243.859375 0)"/>
      <use xlink:href="#DejaVuSans-44" transform="translate(307.234375 0)"/>
      <use xlink:href="#DejaVuSans-4a" transform="translate(368.515625 0)"/>
      <use xlink:href="#DejaVuSans-48" transform="translate(432 0)"/>
     </g>
    </g>
   </g>
   <g id="LineCollection_1">
    <path d="M 285.43702 294.332827 
L 285.43702 276.444568 
" clip-path="url(#p1ee786ca16)" style="fill: none; stroke: #1f77b4; stroke-width: 1.5"/>
    <path d="M 130.937359 222.779789 
L 130.937359 204.89153 
" clip-path="url(#p1ee786ca16)" style="fill: none; stroke: #1f77b4; stroke-width: 1.5"/>
    <path d="M 181.36467 151.226751 
L 181.36467 133.338492 
" clip-path="url(#p1ee786ca16)" style="fill: none; stroke: #1f77b4; stroke-width: 1.5"/>
    <path d="M 166.972287 79.673713 
L 166.972287 61.785454 
" clip-path="url(#p1ee786ca16)" style="fill: none; stroke: #1f77b4; stroke-width: 1.5"/>
   </g>
   <g id="LineCollection_2">
    <path d="M 271.918511 294.332827 
L 271.918511 276.444568 
" clip-path="url(#p1ee786ca16)" style="fill: none; stroke: #1f77b4; stroke-width: 1.5"/>
    <path d="M 125.417756 222.779789 
L 125.417756 204.89153 
" clip-path="url(#p1ee786ca16)" style="fill: none; stroke: #1f77b4; stroke-width: 1.5"/>
    <path d="M 129.35326 151.226751 
L 129.35326 133.338492 
" clip-path="url(#p1ee786ca16)" style="fill: none; stroke: #1f77b4; stroke-width: 1.5"/>
    <path d="M 165.164395 79.673713 
L 165.164395 61.785454 
" clip-path="url(#p1ee786ca16)" style="fill: none; stroke: #1f77b4; stroke-width: 1.5"/>
   </g>
   <g id="LineCollection_3">
    <path d="M 271.918511 285.388698 
L 285.43702 285.388698 
" clip-path="url(#p1ee786ca16)" style="fill: none; stroke: #1f77b4; stroke-width: 1.5"/>
    <path d="M 125.417756 213.83566 
L 130.937359 213.83566 
" clip-path="url(#p1ee786ca16)" style="fill: none; stroke: #1f77b4; stroke-width: 1.5"/>
    <path d="M 129.35326 142.282622 
L 181.36467 142.282622 
" clip-path="url(#p1ee786ca16)" style="fill: none; stroke: #1f77b4; stroke-width: 1.5"/>
    <path d="M 165.164395 70.729584 
L 166.972287 70.729584 
" clip-path="url(#p1ee786ca16)" style="fill: none; stroke: #1f77b4; stroke-width: 1.5"/>
   </g>
   <g id="LineCollection_4">
    <path d="M 272.374907 294.332827 
L 272.374907 276.444568 
" clip-path="url(#p1ee786ca16)" style="fill: none; stroke: #1f77b4; stroke-width: 1.5"/>
    <path d="M 126.475868 222.779789 
L 126.475868 204.89153 
" clip-path="url(#p1ee786ca16)" style="fill: none; stroke: #1f77b4; stroke-width: 1.5"/>
    <path d="M 129.814963 151.226751 
L 129.814963 133.338492 
" clip-path="url(#p1ee786ca16)" style="fill: none; stroke: #1f77b4; stroke-width: 1.5"/>
    <path d="M 165.820684 79.673713 
L 165.820684 61.785454 
" clip-path="url(#p1ee786ca16)" style="fill: none; stroke: #1f77b4; stroke-width: 1.5"/>
   </g>
   <g id="LineCollection_5">
    <path d="M 272.347488 285.388698 
L 272.892332 285.388698 
" clip-path="url(#p1ee786ca16)" style="fill: none; stroke: #000000; stroke-width: 5"/>
    <path d="M 125.686268 213.83566 
L 127.4631 213.83566 
" clip-path="url(#p1ee786ca16)" style="fill: none; stroke: #000000; stroke-width: 5"/>
    <path d="M 129.554039 142.282622 
L 130.2519 142.282622 
" clip-path="url(#p1ee786ca16)" style="fill: none; stroke: #000000; stroke-width: 5"/>
    <path d="M 165.464236 70.729584 
L 166.075417 70.729584 
" clip-path="url(#p1ee786ca16)" style="fill: none; stroke: #000000; stroke-width: 5"/>
   </g>
   <g id="LineCollection_6">
    <path d="M 272.347488 285.388698 
L 272.017574 285.388698 
" clip-path="url(#p1ee786ca16)" style="fill: none; stroke: #000000"/>
    <path d="M 125.686268 213.83566 
L 127.576064 213.83566 
" clip-path="url(#p1ee786ca16)" style="fill: none; stroke: #000000"/>
    <path d="M 129.554039 142.282622 
L 130.301431 142.282622 
" clip-path="url(#p1ee786ca16)" style="fill: none; stroke: #000000"/>
    <path d="M 165.464236 70.729584 
L 166.112565 70.729584 
" clip-path="url(#p1ee786ca16)" style="fill: none; stroke: #000000"/>
   </g>
   <g id="line2d_9">
    <defs>
     <path id="md8b3ac5427" d="M 0 3 
C 0.795609 3 1.55874 2.683901 2.12132 2.12132 
C 2.683901 1.55874 3 0.795609 3 0 
C 3 -0.795609 2.683901 -1.55874 2.12132 -2.12132 
C 1.55874 -2.683901 0.795609 -3 0 -3 
C -0.795609 -3 -1.55874 -2.683901 -2.12132 -2.12132 
C -2.683901 -1.55874 -3 -0.795609 -3 0 
C -3 0.795609 -2.683901 1.55874 -2.12132 2.12132 
C -1.55874 2.683901 -0.795609 3 0 3 
z
" style="stroke: #ff0000"/>
    </defs>
    <g clip-path="url(#p1ee786ca16)">
     <use xlink:href="#md8b3ac5427" x="273.938327" y="285.388698" style="fill: #ff0000; stroke: #ff0000"/>
    </g>
   </g>
   <g id="line2d_10">
    <g clip-path="url(#p1ee786ca16)">
     <use xlink:href="#md8b3ac5427" x="126.954246" y="213.83566" style="fill: #ff0000; stroke: #ff0000"/>
    </g>
   </g>
   <g id="line2d_11">
    <g clip-path="url(#p1ee786ca16)">
     <use xlink:href="#md8b3ac5427" x="135.105968" y="142.282622" style="fill: #ff0000; stroke: #ff0000"/>
    </g>
   </g>
   <g id="line2d_12">
    <g clip-path="url(#p1ee786ca16)">
     <use xlink:href="#md8b3ac5427" x="165.880476" y="70.729584" style="fill: #ff0000; stroke: #ff0000"/>
    </g>
   </g>
   <g id="patch_3">
    <path d="M 118.375 315.798739 
L 118.375 40.319542 
" style="fill: none; stroke: #000000; stroke-width: 0.8; stroke-linejoin: miter; stroke-linecap: square"/>
   </g>
   <g id="patch_4">
    <path d="M 285.43702 315.798739 
L 285.43702 40.319542 
" style="fill: none; stroke: #000000; stroke-width: 0.8; stroke-linejoin: miter; stroke-linecap: square"/>
   </g>
   <g id="patch_5">
    <path d="M 118.375 315.798739 
L 285.43702 315.798739 
" style="fill: none; stroke: #000000; stroke-width: 0.8; stroke-linejoin: miter; stroke-linecap: square"/>
   </g>
   <g id="patch_6">
    <path d="M 118.375 40.319542 
L 285.43702 40.319542 
" style="fill: none; stroke: #000000; stroke-width: 0.8; stroke-linejoin: miter; stroke-linecap: square"/>
   </g>
   <g id="text_11">
    <!-- read_table -->
    <g transform="translate(170.196947 34.319542) scale(0.12 -0.12)">
     <defs>
      <path id="DejaVuSans-42" d="M 3263 -1063 
L 3263 -1509 
L -63 -1509 
L -63 -1063 
L 3263 -1063 
z
" transform="scale(0.015625)"/>
      <path id="DejaVuSans-45" d="M 3116 1747 
Q 3116 2381 2855 2742 
Q 2594 3103 2138 3103 
Q 1681 3103 1420 2742 
Q 1159 2381 1159 1747 
Q 1159 1113 1420 752 
Q 1681 391 2138 391 
Q 2594 391 2855 752 
Q 3116 1113 3116 1747 
z
M 1159 2969 
Q 1341 3281 1617 3432 
Q 1894 3584 2278 3584 
Q 2916 3584 3314 3078 
Q 3713 2572 3713 1747 
Q 3713 922 3314 415 
Q 2916 -91 2278 -91 
Q 1894 -91 1617 61 
Q 1341 213 1159 525 
L 1159 0 
L 581 0 
L 581 4863 
L 1159 4863 
L 1159 2969 
z
" transform="scale(0.015625)"/>
     </defs>
     <use xlink:href="#DejaVuSans-55"/>
     <use xlink:href="#DejaVuSans-48" transform="translate(38.90625 0)"/>
     <use xlink:href="#DejaVuSans-44" transform="translate(100.4375 0)"/>
     <use xlink:href="#DejaVuSans-47" transform="translate(161.71875 0)"/>
     <use xlink:href="#DejaVuSans-42" transform="translate(225.203125 0)"/>
     <use xlink:href="#DejaVuSans-57" transform="translate(275.203125 0)"/>
     <use xlink:href="#DejaVuSans-44" transform="translate(314.40625 0)"/>
     <use xlink:href="#DejaVuSans-45" transform="translate(375.6875 0)"/>
     <use xlink:href="#DejaVuSans-4f" transform="translate(439.171875 0)"/>
     <use xlink:href="#DejaVuSans-48" transform="translate(466.953125 0)"/>
    </g>
   </g>
  </g>
  <g id="axes_2">
   <g id="patch_7">
    <path d="M 294.9375 315.798739 
L 461.99952 315.798739 
L 461.99952 40.319542 
L 294.9375 40.319542 
z
" style="fill: #ffffff"/>
   </g>
   <g id="FillBetweenPolyCollection_5">
    <defs>
     <path id="mac6d2577ec" d="M 356.741956 -86.499082 
L 356.741956 -50.722563 
L 361.330678 -51.489477 
L 365.9194 -56.773113 
L 370.508121 -62.695553 
L 375.096843 -66.448569 
L 379.685565 -67.913878 
L 384.274287 -68.048224 
L 388.863008 -67.541111 
L 393.45173 -66.868577 
L 398.040452 -66.553963 
L 398.040452 -70.667682 
L 398.040452 -70.667682 
L 393.45173 -70.353067 
L 388.863008 -69.680534 
L 384.274287 -69.173421 
L 379.685565 -69.307766 
L 375.096843 -70.773076 
L 370.508121 -74.526092 
L 365.9194 -80.448532 
L 361.330678 -85.732167 
L 356.741956 -86.499082 
z
" style="stroke: #000000; stroke-opacity: 0.3"/>
    </defs>
    <g clip-path="url(#pebfb3bb70d)">
     <use xlink:href="#mac6d2577ec" x="0" y="353.99952" style="fill: #1f77b4; fill-opacity: 0.3; stroke: #000000; stroke-opacity: 0.3"/>
    </g>
   </g>
   <g id="FillBetweenPolyCollection_6">
    <defs>
     <path id="m206e7347c1" d="M 342.774231 -158.05212 
L 342.774231 -122.275601 
L 347.094509 -123.363225 
L 351.414787 -128.026645 
L 355.735065 -133.121859 
L 360.055343 -136.687568 
L 364.375621 -138.544361 
L 368.6959 -139.125475 
L 373.016178 -138.862341 
L 377.336456 -138.280017 
L 381.656734 -137.991665 
L 381.656734 -142.336055 
L 381.656734 -142.336055 
L 377.336456 -142.047704 
L 373.016178 -141.465379 
L 368.6959 -141.202246 
L 364.375621 -141.783359 
L 360.055343 -143.640152 
L 355.735065 -147.205862 
L 351.414787 -152.301076 
L 347.094509 -156.964496 
L 342.774231 -158.05212 
z
" style="stroke: #000000; stroke-opacity: 0.3"/>
    </defs>
    <g clip-path="url(#pebfb3bb70d)">
     <use xlink:href="#m206e7347c1" x="0" y="353.99952" style="fill: #1f77b4; fill-opacity: 0.3; stroke: #000000; stroke-opacity: 0.3"/>
    </g>
   </g>
   <g id="FillBetweenPolyCollection_7">
    <defs>
     <path id="mec0e862451" d="M 331.169651 -229.421764 
L 331.169651 -194.012032 
L 332.164208 -193.828639 
L 333.158765 -198.602889 
L 334.153322 -204.734706 
L 335.147879 -208.993338 
L 336.142436 -210.825284 
L 337.136994 -211.108569 
L 338.131551 -210.623274 
L 339.126108 -209.925215 
L 340.120665 -209.593709 
L 340.120665 -213.840088 
L 340.120665 -213.840088 
L 339.126108 -213.508582 
L 338.131551 -212.810522 
L 337.136994 -212.325227 
L 336.142436 -212.608513 
L 335.147879 -214.440459 
L 334.153322 -218.699091 
L 333.158765 -224.830907 
L 332.164208 -229.605158 
L 331.169651 -229.421764 
z
" style="stroke: #000000; stroke-opacity: 0.3"/>
    </defs>
    <g clip-path="url(#pebfb3bb70d)">
     <use xlink:href="#mec0e862451" x="0" y="353.99952" style="fill: #1f77b4; fill-opacity: 0.3; stroke: #000000; stroke-opacity: 0.3"/>
    </g>
   </g>
   <g id="FillBetweenPolyCollection_8">
    <defs>
     <path id="m356e8af704" d="M 294.9375 -292.32328 
L 294.9375 -274.216592 
L 295.033025 -272.463384 
L 295.128549 -271.343148 
L 295.224074 -270.484373 
L 295.319599 -269.416054 
L 295.415123 -267.911678 
L 295.510648 -266.286327 
L 295.606173 -265.381677 
L 295.701697 -266.093051 
L 295.797222 -268.733072 
L 295.797222 -297.806801 
L 295.797222 -297.806801 
L 295.701697 -300.446821 
L 295.606173 -301.158196 
L 295.510648 -300.253546 
L 295.415123 -298.628194 
L 295.319599 -297.123819 
L 295.224074 -296.0555 
L 295.128549 -295.196725 
L 295.033025 -294.076489 
L 294.9375 -292.32328 
z
" style="stroke: #000000; stroke-opacity: 0.3"/>
    </defs>
    <g clip-path="url(#pebfb3bb70d)">
     <use xlink:href="#m356e8af704" x="0" y="353.99952" style="fill: #1f77b4; fill-opacity: 0.3; stroke: #000000; stroke-opacity: 0.3"/>
    </g>
   </g>
   <g id="matplotlib.axis_3">
    <g id="xtick_5">
     <g id="line2d_13">
      <g>
       <use xlink:href="#m3edf449449" x="324.407778" y="315.798739" style="stroke: #000000; stroke-width: 0.8"/>
      </g>
     </g>
     <g id="text_12">
      <!-- 0.0025 -->
      <g transform="translate(306.912466 330.396395) scale(0.1 -0.1)">
       <use xlink:href="#DejaVuSans-13"/>
       <use xlink:href="#DejaVuSans-11" transform="translate(63.625 0)"/>
       <use xlink:href="#DejaVuSans-13" transform="translate(95.40625 0)"/>
       <use xlink:href="#DejaVuSans-13" transform="translate(159.03125 0)"/>
       <use xlink:href="#DejaVuSans-15" transform="translate(222.65625 0)"/>
       <use xlink:href="#DejaVuSans-18" transform="translate(286.28125 0)"/>
      </g>
     </g>
    </g>
    <g id="xtick_6">
     <g id="line2d_14">
      <g>
       <use xlink:href="#m3edf449449" x="361.505877" y="315.798739" style="stroke: #000000; stroke-width: 0.8"/>
      </g>
     </g>
     <g id="text_13">
      <!-- 0.0050 -->
      <g transform="translate(344.010565 330.396395) scale(0.1 -0.1)">
       <use xlink:href="#DejaVuSans-13"/>
       <use xlink:href="#DejaVuSans-11" transform="translate(63.625 0)"/>
       <use xlink:href="#DejaVuSans-13" transform="translate(95.40625 0)"/>
       <use xlink:href="#DejaVuSans-13" transform="translate(159.03125 0)"/>
       <use xlink:href="#DejaVuSans-18" transform="translate(222.65625 0)"/>
       <use xlink:href="#DejaVuSans-13" transform="translate(286.28125 0)"/>
      </g>
     </g>
    </g>
    <g id="xtick_7">
     <g id="line2d_15">
      <g>
       <use xlink:href="#m3edf449449" x="398.603977" y="315.798739" style="stroke: #000000; stroke-width: 0.8"/>
      </g>
     </g>
     <g id="text_14">
      <!-- 0.0075 -->
      <g transform="translate(381.108664 330.396395) scale(0.1 -0.1)">
       <use xlink:href="#DejaVuSans-13"/>
       <use xlink:href="#DejaVuSans-11" transform="translate(63.625 0)"/>
       <use xlink:href="#DejaVuSans-13" transform="translate(95.40625 0)"/>
       <use xlink:href="#DejaVuSans-13" transform="translate(159.03125 0)"/>
       <use xlink:href="#DejaVuSans-1a" transform="translate(222.65625 0)"/>
       <use xlink:href="#DejaVuSans-18" transform="translate(286.28125 0)"/>
      </g>
     </g>
    </g>
    <g id="xtick_8">
     <g id="line2d_16">
      <g>
       <use xlink:href="#m3edf449449" x="435.702076" y="315.798739" style="stroke: #000000; stroke-width: 0.8"/>
      </g>
     </g>
     <g id="text_15">
      <!-- 0.0100 -->
      <g transform="translate(418.206763 330.396395) scale(0.1 -0.1)">
       <use xlink:href="#DejaVuSans-13"/>
       <use xlink:href="#DejaVuSans-11" transform="translate(63.625 0)"/>
       <use xlink:href="#DejaVuSans-13" transform="translate(95.40625 0)"/>
       <use xlink:href="#DejaVuSans-14" transform="translate(159.03125 0)"/>
       <use xlink:href="#DejaVuSans-13" transform="translate(222.65625 0)"/>
       <use xlink:href="#DejaVuSans-13" transform="translate(286.28125 0)"/>
      </g>
     </g>
    </g>
    <g id="text_16">
     <!-- seconds -->
     <g transform="translate(358.03101 344.397176) scale(0.1 -0.1)">
      <use xlink:href="#DejaVuSans-56"/>
      <use xlink:href="#DejaVuSans-48" transform="translate(52.09375 0)"/>
      <use xlink:href="#DejaVuSans-46" transform="translate(113.625 0)"/>
      <use xlink:href="#DejaVuSans-52" transform="translate(168.609375 0)"/>
      <use xlink:href="#DejaVuSans-51" transform="translate(229.796875 0)"/>
      <use xlink:href="#DejaVuSans-47" transform="translate(293.171875 0)"/>
      <use xlink:href="#DejaVuSans-56" transform="translate(356.65625 0)"/>
     </g>
    </g>
   </g>
   <g id="matplotlib.axis_4">
    <g id="ytick_5">
     <g id="line2d_17">
      <g>
       <use xlink:href="#m4923f91577" x="294.9375" y="285.388698" style="stroke: #000000; stroke-width: 0.8"/>
      </g>
     </g>
    </g>
    <g id="ytick_6">
     <g id="line2d_18">
      <g>
       <use xlink:href="#m4923f91577" x="294.9375" y="213.83566" style="stroke: #000000; stroke-width: 0.8"/>
      </g>
     </g>
    </g>
    <g id="ytick_7">
     <g id="line2d_19">
      <g>
       <use xlink:href="#m4923f91577" x="294.9375" y="142.282622" style="stroke: #000000; stroke-width: 0.8"/>
      </g>
     </g>
    </g>
    <g id="ytick_8">
     <g id="line2d_20">
      <g>
       <use xlink:href="#m4923f91577" x="294.9375" y="70.729584" style="stroke: #000000; stroke-width: 0.8"/>
      </g>
     </g>
    </g>
   </g>
   <g id="LineCollection_7">
    <path d="M 398.040452 294.332827 
L 398.040452 276.444568 
" clip-path="url(#pebfb3bb70d)" style="fill: none; stroke: #1f77b4; stroke-width: 1.5"/>
    <path d="M 381.656734 222.779789 
L 381.656734 204.89153 
" clip-path="url(#pebfb3bb70d)" style="fill: none; stroke: #1f77b4; stroke-width: 1.5"/>
    <path d="M 340.120665 151.226751 
L 340.120665 133.338492 
" clip-path="url(#pebfb3bb70d)" style="fill: none; stroke: #1f77b4; stroke-width: 1.5"/>
    <path d="M 295.797222 79.673713 
L 295.797222 61.785454 
" clip-path="url(#pebfb3bb70d)" style="fill: none; stroke: #1f77b4; stroke-width: 1.5"/>
   </g>
   <g id="LineCollection_8">
    <path d="M 356.741956 294.332827 
L 356.741956 276.444568 
" clip-path="url(#pebfb3bb70d)" style="fill: none; stroke: #1f77b4; stroke-width: 1.5"/>
    <path d="M 342.774231 222.779789 
L 342.774231 204.89153 
" clip-path="url(#pebfb3bb70d)" style="fill: none; stroke: #1f77b4; stroke-width: 1.5"/>
    <path d="M 331.169651 151.226751 
L 331.169651 133.338492 
" clip-path="url(#pebfb3bb70d)" style="fill: none; stroke: #1f77b4; stroke-width: 1.5"/>
    <path d="M 294.9375 79.673713 
L 294.9375 61.785454 
" clip-path="url(#pebfb3bb70d)" style="fill: none; stroke: #1f77b4; stroke-width: 1.5"/>
   </g>
   <g id="LineCollection_9">
    <path d="M 356.741956 285.388698 
L 398.040452 285.388698 
" clip-path="url(#pebfb3bb70d)" style="fill: none; stroke: #1f77b4; stroke-width: 1.5"/>
    <path d="M 342.774231 213.83566 
L 381.656734 213.83566 
" clip-path="url(#pebfb3bb70d)" style="fill: none; stroke: #1f77b4; stroke-width: 1.5"/>
    <path d="M 331.169651 142.282622 
L 340.120665 142.282622 
" clip-path="url(#pebfb3bb70d)" style="fill: none; stroke: #1f77b4; stroke-width: 1.5"/>
    <path d="M 294.9375 70.729584 
L 295.797222 70.729584 
" clip-path="url(#pebfb3bb70d)" style="fill: none; stroke: #1f77b4; stroke-width: 1.5"/>
   </g>
   <g id="LineCollection_10">
    <path d="M 358.939024 294.332827 
L 358.939024 276.444568 
" clip-path="url(#pebfb3bb70d)" style="fill: none; stroke: #1f77b4; stroke-width: 1.5"/>
    <path d="M 343.491723 222.779789 
L 343.491723 204.89153 
" clip-path="url(#pebfb3bb70d)" style="fill: none; stroke: #1f77b4; stroke-width: 1.5"/>
    <path d="M 331.672039 151.226751 
L 331.672039 133.338492 
" clip-path="url(#pebfb3bb70d)" style="fill: none; stroke: #1f77b4; stroke-width: 1.5"/>
    <path d="M 295.515955 79.673713 
L 295.515955 61.785454 
" clip-path="url(#pebfb3bb70d)" style="fill: none; stroke: #1f77b4; stroke-width: 1.5"/>
   </g>
   <g id="LineCollection_11">
    <path d="M 357.196583 285.388698 
L 359.61035 285.388698 
" clip-path="url(#pebfb3bb70d)" style="fill: none; stroke: #000000; stroke-width: 5"/>
    <path d="M 343.425054 213.83566 
L 344.120261 213.83566 
" clip-path="url(#pebfb3bb70d)" style="fill: none; stroke: #000000; stroke-width: 5"/>
    <path d="M 331.427036 142.282622 
L 332.232805 142.282622 
" clip-path="url(#pebfb3bb70d)" style="fill: none; stroke: #000000; stroke-width: 5"/>
    <path d="M 295.232034 70.729584 
L 295.702582 70.729584 
" clip-path="url(#pebfb3bb70d)" style="fill: none; stroke: #000000; stroke-width: 5"/>
   </g>
   <g id="LineCollection_12">
    <path d="M 357.196583 285.388698 
L 356.741956 285.388698 
" clip-path="url(#pebfb3bb70d)" style="fill: none; stroke: #000000"/>
    <path d="M 343.425054 213.83566 
L 344.282981 213.83566 
" clip-path="url(#pebfb3bb70d)" style="fill: none; stroke: #000000"/>
    <path d="M 331.427036 142.282622 
L 331.445611 142.282622 
" clip-path="url(#pebfb3bb70d)" style="fill: none; stroke: #000000"/>
    <path d="M 295.232034 70.729584 
L 295.23115 70.729584 
" clip-path="url(#pebfb3bb70d)" style="fill: none; stroke: #000000"/>
   </g>
   <g id="line2d_21">
    <g clip-path="url(#pebfb3bb70d)">
     <use xlink:href="#md8b3ac5427" x="362.378265" y="285.388698" style="fill: #ff0000; stroke: #ff0000"/>
    </g>
   </g>
   <g id="line2d_22">
    <g clip-path="url(#pebfb3bb70d)">
     <use xlink:href="#md8b3ac5427" x="348.404394" y="213.83566" style="fill: #ff0000; stroke: #ff0000"/>
    </g>
   </g>
   <g id="line2d_23">
    <g clip-path="url(#pebfb3bb70d)">
     <use xlink:href="#md8b3ac5427" x="332.544852" y="142.282622" style="fill: #ff0000; stroke: #ff0000"/>
    </g>
   </g>
   <g id="line2d_24">
    <g clip-path="url(#pebfb3bb70d)">
     <use xlink:href="#md8b3ac5427" x="295.431044" y="70.729584" style="fill: #ff0000; stroke: #ff0000"/>
    </g>
   </g>
   <g id="patch_8">
    <path d="M 294.9375 315.798739 
L 294.9375 40.319542 
" style="fill: none; stroke: #000000; stroke-width: 0.8; stroke-linejoin: miter; stroke-linecap: square"/>
   </g>
   <g id="patch_9">
    <path d="M 461.99952 315.798739 
L 461.99952 40.319542 
" style="fill: none; stroke: #000000; stroke-width: 0.8; stroke-linejoin: miter; stroke-linecap: square"/>
   </g>
   <g id="patch_10">
    <path d="M 294.9375 315.798739 
L 461.99952 315.798739 
" style="fill: none; stroke: #000000; stroke-width: 0.8; stroke-linejoin: miter; stroke-linecap: square"/>
   </g>
   <g id="patch_11">
    <path d="M 294.9375 40.319542 
L 461.99952 40.319542 
" style="fill: none; stroke: #000000; stroke-width: 0.8; stroke-linejoin: miter; stroke-linecap: square"/>
   </g>
   <g id="text_17">
    <!-- write_table -->
    <g transform="translate(345.18726 34.319542) scale(0.12 -0.12)">
     <defs>
      <path id="DejaVuSans-5a" d="M 269 3500 
L 844 3500 
L 1563 769 
L 2278 3500 
L 2956 3500 
L 3675 769 
L 4391 3500 
L 4966 3500 
L 4050 0 
L 3372 0 
L 2619 2869 
L 1863 0 
L 1184 0 
L 269 3500 
z
" transform="scale(0.015625)"/>
     </defs>
     <use xlink:href="#DejaVuSans-5a"/>
     <use xlink:href="#DejaVuSans-55" transform="translate(81.78125 0)"/>
     <use xlink:href="#DejaVuSans-4c" transform="translate(122.890625 0)"/>
     <use xlink:href="#DejaVuSans-57" transform="translate(150.671875 0)"/>
     <use xlink:href="#DejaVuSans-48" transform="translate(189.875 0)"/>
     <use xlink:href="#DejaVuSans-42" transform="translate(251.40625 0)"/>
     <use xlink:href="#DejaVuSans-57" transform="translate(301.40625 0)"/>
     <use xlink:href="#DejaVuSans-44" transform="translate(340.609375 0)"/>
     <use xlink:href="#DejaVuSans-45" transform="translate(401.890625 0)"/>
     <use xlink:href="#DejaVuSans-4f" transform="translate(465.375 0)"/>
     <use xlink:href="#DejaVuSans-48" transform="translate(493.15625 0)"/>
    </g>
   </g>
  </g>
  <g id="text_18">
   <!-- Reading/Writing file times -->
   <g transform="translate(157.16226 16.318125) scale(0.12 -0.12)">
    <defs>
     <path id="DejaVuSans-12" d="M 1625 4666 
L 2156 4666 
L 531 -594 
L 0 -594 
L 1625 4666 
z
" transform="scale(0.015625)"/>
     <path id="DejaVuSans-3a" d="M 213 4666 
L 850 4666 
L 1831 722 
L 2809 4666 
L 3519 4666 
L 4500 722 
L 5478 4666 
L 6119 4666 
L 4947 0 
L 4153 0 
L 3169 4050 
L 2175 0 
L 1381 0 
L 213 4666 
z
" transform="scale(0.015625)"/>
     <path id="DejaVuSans-13af" d="M 3431 3500 
L 3431 0 
L 2853 0 
L 2853 3053 
L 1275 3053 
L 1275 0 
L 697 0 
L 697 3053 
L 147 3053 
L 147 3500 
L 697 3500 
L 697 3744 
Q 697 4316 967 4589 
Q 1238 4863 1797 4863 
L 2375 4863 
L 2375 4384 
L 1825 4384 
Q 1516 4384 1395 4259 
Q 1275 4134 1275 3809 
L 1275 3500 
L 3431 3500 
z
M 2853 4856 
L 3431 4856 
L 3431 4128 
L 2853 4128 
L 2853 4856 
z
" transform="scale(0.015625)"/>
     <path id="DejaVuSans-50" d="M 3328 2828 
Q 3544 3216 3844 3400 
Q 4144 3584 4550 3584 
Q 5097 3584 5394 3201 
Q 5691 2819 5691 2113 
L 5691 0 
L 5113 0 
L 5113 2094 
Q 5113 2597 4934 2840 
Q 4756 3084 4391 3084 
Q 3944 3084 3684 2787 
Q 3425 2491 3425 1978 
L 3425 0 
L 2847 0 
L 2847 2094 
Q 2847 2600 2669 2842 
Q 2491 3084 2119 3084 
Q 1678 3084 1418 2786 
Q 1159 2488 1159 1978 
L 1159 0 
L 581 0 
L 581 3500 
L 1159 3500 
L 1159 2956 
Q 1356 3278 1631 3431 
Q 1906 3584 2284 3584 
Q 2666 3584 2933 3390 
Q 3200 3197 3328 2828 
z
" transform="scale(0.015625)"/>
    </defs>
    <use xlink:href="#DejaVuSans-35"/>
    <use xlink:href="#DejaVuSans-48" transform="translate(65 0)"/>
    <use xlink:href="#DejaVuSans-44" transform="translate(126.53125 0)"/>
    <use xlink:href="#DejaVuSans-47" transform="translate(187.8125 0)"/>
    <use xlink:href="#DejaVuSans-4c" transform="translate(251.296875 0)"/>
    <use xlink:href="#DejaVuSans-51" transform="translate(279.078125 0)"/>
    <use xlink:href="#DejaVuSans-4a" transform="translate(342.453125 0)"/>
    <use xlink:href="#DejaVuSans-12" transform="translate(405.9375 0)"/>
    <use xlink:href="#DejaVuSans-3a" transform="translate(439.625 0)"/>
    <use xlink:href="#DejaVuSans-55" transform="translate(534.015625 0)"/>
    <use xlink:href="#DejaVuSans-4c" transform="translate(575.125 0)"/>
    <use xlink:href="#DejaVuSans-57" transform="translate(602.90625 0)"/>
    <use xlink:href="#DejaVuSans-4c" transform="translate(642.109375 0)"/>
    <use xlink:href="#DejaVuSans-51" transform="translate(669.890625 0)"/>
    <use xlink:href="#DejaVuSans-4a" transform="translate(733.265625 0)"/>
    <use xlink:href="#DejaVuSans-3" transform="translate(796.75 0)"/>
    <use xlink:href="#DejaVuSans-13af" transform="translate(828.53125 0)"/>
    <use xlink:href="#DejaVuSans-4f" transform="translate(891.515625 0)"/>
    <use xlink:href="#DejaVuSans-48" transform="translate(919.296875 0)"/>
    <use xlink:href="#DejaVuSans-3" transform="translate(980.828125 0)"/>
    <use xlink:href="#DejaVuSans-57" transform="translate(1012.609375 0)"/>
    <use xlink:href="#DejaVuSans-4c" transform="translate(1051.8125 0)"/>
    <use xlink:href="#DejaVuSans-50" transform="translate(1079.59375 0)"/>
    <use xlink:href="#DejaVuSans-48" transform="translate(1177 0)"/>
    <use xlink:href="#DejaVuSans-56" transform="translate(1238.53125 0)"/>
   </g>
  </g>
 </g>
 <defs>
  <clipPath id="p1ee786ca16">
   <rect x="118.375" y="40.319542" width="167.06202" height="275.479196"/>
  </clipPath>
  <clipPath id="pebfb3bb70d">
   <rect x="294.9375" y="40.319542" width="167.06202" height="275.479196"/>
  </clipPath>
 </defs>
</svg>
