<?xml version="1.0" encoding="utf-8" standalone="no"?>
<!DOCTYPE svg PUBLIC "-//W3C//DTD SVG 1.1//EN"
  "http://www.w3.org/Graphics/SVG/1.1/DTD/svg11.dtd">
<svg xmlns:xlink="http://www.w3.org/1999/xlink" width="469.19952pt" height="353.99952pt" viewBox="0 0 469.19952 353.99952" xmlns="http://www.w3.org/2000/svg" version="1.1">
 <metadata>
  <rdf:RDF xmlns:dc="http://purl.org/dc/elements/1.1/" xmlns:cc="http://creativecommons.org/ns#" xmlns:rdf="http://www.w3.org/1999/02/22-rdf-syntax-ns#">
   <cc:Work>
    <dc:type rdf:resource="http://purl.org/dc/dcmitype/StillImage"/>
    <dc:date>2026-07-05T20:55:39.381430</dc:date>
    <dc:format>image/svg+xml</dc:format>
    <dc:creator>
     <cc:Agent>
      <dc:title>made/written by /home/con/Scripts/stats/examples.pl called using "plt" in /home/con/perl5/perlbrew/perls/perl-5.42.2/lib/site_perl/5.42.2/x86_64-linux/Matplotlib/Simple.pm version 0.301</dc:title>
     </cc:Agent>
    </dc:creator>
   </cc:Work>
  </rdf:RDF>
 </metadata>
 <defs>
  <style type="text/css">*{stroke-linejoin: round; stroke-linecap: butt}</style>
 </defs>
 <g id="figure_1">
  <g id="patch_1">
   <path d="M 0 353.99952 
L 469.19952 353.99952 
L 469.19952 0 
L 0 0 
z
" style="fill: #ffffff"/>
  </g>
  <g id="axes_1">
   <g id="patch_2">
    <path d="M 118.375 315.798739 
L 285.43702 315.798739 
L 285.43702 40.319542 
L 118.375 40.319542 
z
" style="fill: #ffffff"/>
   </g>
   <g id="FillBetweenPolyCollection_1">
    <defs>
     <path id="m3c21a1de7f" d="M 271.231453 -86.274471 
L 271.231453 -50.947173 
L 272.809849 -50.722563 
L 274.388245 -55.673739 
L 275.966642 -61.9304 
L 277.545038 -66.126363 
L 279.123435 -67.835727 
L 280.701831 -68.050728 
L 282.280227 -67.549201 
L 283.858624 -66.851146 
L 285.43702 -66.520047 
L 285.43702 -70.701598 
L 285.43702 -70.701598 
L 283.858624 -70.370499 
L 282.280227 -69.672444 
L 280.701831 -69.170916 
L 279.123435 -69.385918 
L 277.545038 -71.095282 
L 275.966642 -75.291245 
L 274.388245 -81.547906 
L 272.809849 -86.499082 
L 271.231453 -86.274471 
z
" style="stroke: #000000; stroke-opacity: 0.3"/>
    </defs>
    <g clip-path="url(#p698fc28376)">
     <use xlink:href="#m3c21a1de7f" x="0" y="353.99952" style="fill: #1f77b4; fill-opacity: 0.3; stroke: #000000; stroke-opacity: 0.3"/>
    </g>
   </g>
   <g id="FillBetweenPolyCollection_2">
    <defs>
     <path id="m5e659c6d16" d="M 126.121536 -155.573175 
L 126.121536 -124.754546 
L 126.737617 -122.275601 
L 127.353698 -122.948996 
L 127.96978 -125.815012 
L 128.585861 -129.379418 
L 129.201942 -132.623998 
L 129.818024 -135.037554 
L 130.434105 -136.382612 
L 131.050186 -136.84379 
L 131.666268 -137.101675 
L 131.666268 -143.226046 
L 131.666268 -143.226046 
L 131.050186 -143.48393 
L 130.434105 -143.945109 
L 129.818024 -145.290167 
L 129.201942 -147.703723 
L 128.585861 -150.948303 
L 127.96978 -154.512709 
L 127.353698 -157.378725 
L 126.737617 -158.05212 
L 126.121536 -155.573175 
z
" style="stroke: #000000; stroke-opacity: 0.3"/>
    </defs>
    <g clip-path="url(#p698fc28376)">
     <use xlink:href="#m5e659c6d16" x="0" y="353.99952" style="fill: #1f77b4; fill-opacity: 0.3; stroke: #000000; stroke-opacity: 0.3"/>
    </g>
   </g>
   <g id="FillBetweenPolyCollection_3">
    <defs>
     <path id="m1b505e3779" d="M 130.074957 -229.605158 
L 130.074957 -193.828639 
L 135.880312 -195.922458 
L 141.685667 -201.545173 
L 147.491023 -206.933056 
L 153.296378 -210.0422 
L 159.101733 -211.149831 
L 164.907088 -211.163187 
L 170.712443 -210.648611 
L 176.517799 -210.013172 
L 182.323154 -209.721595 
L 182.323154 -213.712202 
L 182.323154 -213.712202 
L 176.517799 -213.420624 
L 170.712443 -212.785185 
L 164.907088 -212.27061 
L 159.101733 -212.283966 
L 153.296378 -213.391597 
L 147.491023 -216.500741 
L 141.685667 -221.888624 
L 135.880312 -227.511339 
L 130.074957 -229.605158 
z
" style="stroke: #000000; stroke-opacity: 0.3"/>
    </defs>
    <g clip-path="url(#p698fc28376)">
     <use xlink:href="#m1b505e3779" x="0" y="353.99952" style="fill: #1f77b4; fill-opacity: 0.3; stroke: #000000; stroke-opacity: 0.3"/>
    </g>
   </g>
   <g id="FillBetweenPolyCollection_4">
    <defs>
     <path id="m2875e0d323" d="M 165.480476 -289.366145 
L 165.480476 -277.173728 
L 165.685822 -273.19121 
L 165.891167 -268.335585 
L 166.096513 -265.381677 
L 166.301858 -267.675954 
L 166.507204 -273.829143 
L 166.712549 -279.12466 
L 166.917895 -281.209576 
L 167.12324 -281.074323 
L 167.328586 -280.731731 
L 167.328586 -285.808142 
L 167.328586 -285.808142 
L 167.12324 -285.465549 
L 166.917895 -285.330297 
L 166.712549 -287.415213 
L 166.507204 -292.71073 
L 166.301858 -298.863919 
L 166.096513 -301.158196 
L 165.891167 -298.204288 
L 165.685822 -293.348663 
L 165.480476 -289.366145 
z
" style="stroke: #000000; stroke-opacity: 0.3"/>
    </defs>
    <g clip-path="url(#p698fc28376)">
     <use xlink:href="#m2875e0d323" x="0" y="353.99952" style="fill: #1f77b4; fill-opacity: 0.3; stroke: #000000; stroke-opacity: 0.3"/>
    </g>
   </g>
   <g id="matplotlib.axis_1">
    <g id="xtick_1">
     <g id="line2d_1">
      <defs>
       <path id="md42531e5c9" d="M 0 0 
L 0 3.5 
" style="stroke: #000000; stroke-width: 0.8"/>
      </defs>
      <g>
       <use xlink:href="#md42531e5c9" x="148.651162" y="315.798739" style="stroke: #000000; stroke-width: 0.8"/>
      </g>
     </g>
     <g id="text_1">
      <!-- 0.0025 -->
      <g transform="translate(131.155849 330.396395) scale(0.1 -0.1)">
       <defs>
        <path id="DejaVuSans-13" d="M 2034 4250 
Q 1547 4250 1301 3770 
Q 1056 3291 1056 2328 
Q 1056 1369 1301 889 
Q 1547 409 2034 409 
Q 2525 409 2770 889 
Q 3016 1369 3016 2328 
Q 3016 3291 2770 3770 
Q 2525 4250 2034 4250 
z
M 2034 4750 
Q 2819 4750 3233 4129 
Q 3647 3509 3647 2328 
Q 3647 1150 3233 529 
Q 2819 -91 2034 -91 
Q 1250 -91 836 529 
Q 422 1150 422 2328 
Q 422 3509 836 4129 
Q 1250 4750 2034 4750 
z
" transform="scale(0.015625)"/>
        <path id="DejaVuSans-11" d="M 684 794 
L 1344 794 
L 1344 0 
L 684 0 
L 684 794 
z
" transform="scale(0.015625)"/>
        <path id="DejaVuSans-15" d="M 1228 531 
L 3431 531 
L 3431 0 
L 469 0 
L 469 531 
Q 828 903 1448 1529 
Q 2069 2156 2228 2338 
Q 2531 2678 2651 2914 
Q 2772 3150 2772 3378 
Q 2772 3750 2511 3984 
Q 2250 4219 1831 4219 
Q 1534 4219 1204 4116 
Q 875 4013 500 3803 
L 500 4441 
Q 881 4594 1212 4672 
Q 1544 4750 1819 4750 
Q 2544 4750 2975 4387 
Q 3406 4025 3406 3419 
Q 3406 3131 3298 2873 
Q 3191 2616 2906 2266 
Q 2828 2175 2409 1742 
Q 1991 1309 1228 531 
z
" transform="scale(0.015625)"/>
        <path id="DejaVuSans-18" d="M 691 4666 
L 3169 4666 
L 3169 4134 
L 1269 4134 
L 1269 2991 
Q 1406 3038 1543 3061 
Q 1681 3084 1819 3084 
Q 2600 3084 3056 2656 
Q 3513 2228 3513 1497 
Q 3513 744 3044 326 
Q 2575 -91 1722 -91 
Q 1428 -91 1123 -41 
Q 819 9 494 109 
L 494 744 
Q 775 591 1075 516 
Q 1375 441 1709 441 
Q 2250 441 2565 725 
Q 2881 1009 2881 1497 
Q 2881 1984 2565 2268 
Q 2250 2553 1709 2553 
Q 1456 2553 1204 2497 
Q 953 2441 691 2322 
L 691 4666 
z
" transform="scale(0.015625)"/>
       </defs>
       <use xlink:href="#DejaVuSans-13"/>
       <use xlink:href="#DejaVuSans-11" transform="translate(63.625 0)"/>
       <use xlink:href="#DejaVuSans-13" transform="translate(95.40625 0)"/>
       <use xlink:href="#DejaVuSans-13" transform="translate(159.03125 0)"/>
       <use xlink:href="#DejaVuSans-15" transform="translate(222.65625 0)"/>
       <use xlink:href="#DejaVuSans-18" transform="translate(286.28125 0)"/>
      </g>
     </g>
    </g>
    <g id="xtick_2">
     <g id="line2d_2">
      <g>
       <use xlink:href="#md42531e5c9" x="185.918154" y="315.798739" style="stroke: #000000; stroke-width: 0.8"/>
      </g>
     </g>
     <g id="text_2">
      <!-- 0.0050 -->
      <g transform="translate(168.422842 330.396395) scale(0.1 -0.1)">
       <use xlink:href="#DejaVuSans-13"/>
       <use xlink:href="#DejaVuSans-11" transform="translate(63.625 0)"/>
       <use xlink:href="#DejaVuSans-13" transform="translate(95.40625 0)"/>
       <use xlink:href="#DejaVuSans-13" transform="translate(159.03125 0)"/>
       <use xlink:href="#DejaVuSans-18" transform="translate(222.65625 0)"/>
       <use xlink:href="#DejaVuSans-13" transform="translate(286.28125 0)"/>
      </g>
     </g>
    </g>
    <g id="xtick_3">
     <g id="line2d_3">
      <g>
       <use xlink:href="#md42531e5c9" x="223.185147" y="315.798739" style="stroke: #000000; stroke-width: 0.8"/>
      </g>
     </g>
     <g id="text_3">
      <!-- 0.0075 -->
      <g transform="translate(205.689834 330.396395) scale(0.1 -0.1)">
       <defs>
        <path id="DejaVuSans-1a" d="M 525 4666 
L 3525 4666 
L 3525 4397 
L 1831 0 
L 1172 0 
L 2766 4134 
L 525 4134 
L 525 4666 
z
" transform="scale(0.015625)"/>
       </defs>
       <use xlink:href="#DejaVuSans-13"/>
       <use xlink:href="#DejaVuSans-11" transform="translate(63.625 0)"/>
       <use xlink:href="#DejaVuSans-13" transform="translate(95.40625 0)"/>
       <use xlink:href="#DejaVuSans-13" transform="translate(159.03125 0)"/>
       <use xlink:href="#DejaVuSans-1a" transform="translate(222.65625 0)"/>
       <use xlink:href="#DejaVuSans-18" transform="translate(286.28125 0)"/>
      </g>
     </g>
    </g>
    <g id="xtick_4">
     <g id="line2d_4">
      <g>
       <use xlink:href="#md42531e5c9" x="260.452139" y="315.798739" style="stroke: #000000; stroke-width: 0.8"/>
      </g>
     </g>
     <g id="text_4">
      <!-- 0.0100 -->
      <g transform="translate(242.956826 330.396395) scale(0.1 -0.1)">
       <defs>
        <path id="DejaVuSans-14" d="M 794 531 
L 1825 531 
L 1825 4091 
L 703 3866 
L 703 4441 
L 1819 4666 
L 2450 4666 
L 2450 531 
L 3481 531 
L 3481 0 
L 794 0 
L 794 531 
z
" transform="scale(0.015625)"/>
       </defs>
       <use xlink:href="#DejaVuSans-13"/>
       <use xlink:href="#DejaVuSans-11" transform="translate(63.625 0)"/>
       <use xlink:href="#DejaVuSans-13" transform="translate(95.40625 0)"/>
       <use xlink:href="#DejaVuSans-14" transform="translate(159.03125 0)"/>
       <use xlink:href="#DejaVuSans-13" transform="translate(222.65625 0)"/>
       <use xlink:href="#DejaVuSans-13" transform="translate(286.28125 0)"/>
      </g>
     </g>
    </g>
    <g id="text_5">
     <!-- seconds -->
     <g transform="translate(181.46851 344.397176) scale(0.1 -0.1)">
      <defs>
       <path id="DejaVuSans-56" d="M 2834 3397 
L 2834 2853 
Q 2591 2978 2328 3040 
Q 2066 3103 1784 3103 
Q 1356 3103 1142 2972 
Q 928 2841 928 2578 
Q 928 2378 1081 2264 
Q 1234 2150 1697 2047 
L 1894 2003 
Q 2506 1872 2764 1633 
Q 3022 1394 3022 966 
Q 3022 478 2636 193 
Q 2250 -91 1575 -91 
Q 1294 -91 989 -36 
Q 684 19 347 128 
L 347 722 
Q 666 556 975 473 
Q 1284 391 1588 391 
Q 1994 391 2212 530 
Q 2431 669 2431 922 
Q 2431 1156 2273 1281 
Q 2116 1406 1581 1522 
L 1381 1569 
Q 847 1681 609 1914 
Q 372 2147 372 2553 
Q 372 3047 722 3315 
Q 1072 3584 1716 3584 
Q 2034 3584 2315 3537 
Q 2597 3491 2834 3397 
z
" transform="scale(0.015625)"/>
       <path id="DejaVuSans-48" d="M 3597 1894 
L 3597 1613 
L 953 1613 
Q 991 1019 1311 708 
Q 1631 397 2203 397 
Q 2534 397 2845 478 
Q 3156 559 3463 722 
L 3463 178 
Q 3153 47 2828 -22 
Q 2503 -91 2169 -91 
Q 1331 -91 842 396 
Q 353 884 353 1716 
Q 353 2575 817 3079 
Q 1281 3584 2069 3584 
Q 2775 3584 3186 3129 
Q 3597 2675 3597 1894 
z
M 3022 2063 
Q 3016 2534 2758 2815 
Q 2500 3097 2075 3097 
Q 1594 3097 1305 2825 
Q 1016 2553 972 2059 
L 3022 2063 
z
" transform="scale(0.015625)"/>
       <path id="DejaVuSans-46" d="M 3122 3366 
L 3122 2828 
Q 2878 2963 2633 3030 
Q 2388 3097 2138 3097 
Q 1578 3097 1268 2742 
Q 959 2388 959 1747 
Q 959 1106 1268 751 
Q 1578 397 2138 397 
Q 2388 397 2633 464 
Q 2878 531 3122 666 
L 3122 134 
Q 2881 22 2623 -34 
Q 2366 -91 2075 -91 
Q 1284 -91 818 406 
Q 353 903 353 1747 
Q 353 2603 823 3093 
Q 1294 3584 2113 3584 
Q 2378 3584 2631 3529 
Q 2884 3475 3122 3366 
z
" transform="scale(0.015625)"/>
       <path id="DejaVuSans-52" d="M 1959 3097 
Q 1497 3097 1228 2736 
Q 959 2375 959 1747 
Q 959 1119 1226 758 
Q 1494 397 1959 397 
Q 2419 397 2687 759 
Q 2956 1122 2956 1747 
Q 2956 2369 2687 2733 
Q 2419 3097 1959 3097 
z
M 1959 3584 
Q 2709 3584 3137 3096 
Q 3566 2609 3566 1747 
Q 3566 888 3137 398 
Q 2709 -91 1959 -91 
Q 1206 -91 779 398 
Q 353 888 353 1747 
Q 353 2609 779 3096 
Q 1206 3584 1959 3584 
z
" transform="scale(0.015625)"/>
       <path id="DejaVuSans-51" d="M 3513 2113 
L 3513 0 
L 2938 0 
L 2938 2094 
Q 2938 2591 2744 2837 
Q 2550 3084 2163 3084 
Q 1697 3084 1428 2787 
Q 1159 2491 1159 1978 
L 1159 0 
L 581 0 
L 581 3500 
L 1159 3500 
L 1159 2956 
Q 1366 3272 1645 3428 
Q 1925 3584 2291 3584 
Q 2894 3584 3203 3211 
Q 3513 2838 3513 2113 
z
" transform="scale(0.015625)"/>
       <path id="DejaVuSans-47" d="M 2906 2969 
L 2906 4863 
L 3481 4863 
L 3481 0 
L 2906 0 
L 2906 525 
Q 2725 213 2448 61 
Q 2172 -91 1784 -91 
Q 1150 -91 751 415 
Q 353 922 353 1747 
Q 353 2572 751 3078 
Q 1150 3584 1784 3584 
Q 2172 3584 2448 3432 
Q 2725 3281 2906 2969 
z
M 947 1747 
Q 947 1113 1208 752 
Q 1469 391 1925 391 
Q 2381 391 2643 752 
Q 2906 1113 2906 1747 
Q 2906 2381 2643 2742 
Q 2381 3103 1925 3103 
Q 1469 3103 1208 2742 
Q 947 2381 947 1747 
z
" transform="scale(0.015625)"/>
      </defs>
      <use xlink:href="#DejaVuSans-56"/>
      <use xlink:href="#DejaVuSans-48" transform="translate(52.09375 0)"/>
      <use xlink:href="#DejaVuSans-46" transform="translate(113.625 0)"/>
      <use xlink:href="#DejaVuSans-52" transform="translate(168.609375 0)"/>
      <use xlink:href="#DejaVuSans-51" transform="translate(229.796875 0)"/>
      <use xlink:href="#DejaVuSans-47" transform="translate(293.171875 0)"/>
      <use xlink:href="#DejaVuSans-56" transform="translate(356.65625 0)"/>
     </g>
    </g>
   </g>
   <g id="matplotlib.axis_2">
    <g id="ytick_1">
     <g id="line2d_5">
      <defs>
       <path id="m3e6ab2c5b0" d="M 0 0 
L -3.5 0 
" style="stroke: #000000; stroke-width: 0.8"/>
      </defs>
      <g>
       <use xlink:href="#m3e6ab2c5b0" x="118.375" y="285.388698" style="stroke: #000000; stroke-width: 0.8"/>
      </g>
     </g>
     <g id="text_6">
      <!-- Perl5.42.2 (10) -->
      <g transform="translate(37.146875 289.187916) scale(0.1 -0.1)">
       <defs>
        <path id="DejaVuSans-33" d="M 1259 4147 
L 1259 2394 
L 2053 2394 
Q 2494 2394 2734 2622 
Q 2975 2850 2975 3272 
Q 2975 3691 2734 3919 
Q 2494 4147 2053 4147 
L 1259 4147 
z
M 628 4666 
L 2053 4666 
Q 2838 4666 3239 4311 
Q 3641 3956 3641 3272 
Q 3641 2581 3239 2228 
Q 2838 1875 2053 1875 
L 1259 1875 
L 1259 0 
L 628 0 
L 628 4666 
z
" transform="scale(0.015625)"/>
        <path id="DejaVuSans-55" d="M 2631 2963 
Q 2534 3019 2420 3045 
Q 2306 3072 2169 3072 
Q 1681 3072 1420 2755 
Q 1159 2438 1159 1844 
L 1159 0 
L 581 0 
L 581 3500 
L 1159 3500 
L 1159 2956 
Q 1341 3275 1631 3429 
Q 1922 3584 2338 3584 
Q 2397 3584 2469 3576 
Q 2541 3569 2628 3553 
L 2631 2963 
z
" transform="scale(0.015625)"/>
        <path id="DejaVuSans-4f" d="M 603 4863 
L 1178 4863 
L 1178 0 
L 603 0 
L 603 4863 
z
" transform="scale(0.015625)"/>
        <path id="DejaVuSans-17" d="M 2419 4116 
L 825 1625 
L 2419 1625 
L 2419 4116 
z
M 2253 4666 
L 3047 4666 
L 3047 1625 
L 3713 1625 
L 3713 1100 
L 3047 1100 
L 3047 0 
L 2419 0 
L 2419 1100 
L 313 1100 
L 313 1709 
L 2253 4666 
z
" transform="scale(0.015625)"/>
        <path id="DejaVuSans-3" transform="scale(0.015625)"/>
        <path id="DejaVuSans-b" d="M 1984 4856 
Q 1566 4138 1362 3434 
Q 1159 2731 1159 2009 
Q 1159 1288 1364 580 
Q 1569 -128 1984 -844 
L 1484 -844 
Q 1016 -109 783 600 
Q 550 1309 550 2009 
Q 550 2706 781 3412 
Q 1013 4119 1484 4856 
L 1984 4856 
z
" transform="scale(0.015625)"/>
        <path id="DejaVuSans-c" d="M 513 4856 
L 1013 4856 
Q 1481 4119 1714 3412 
Q 1947 2706 1947 2009 
Q 1947 1309 1714 600 
Q 1481 -109 1013 -844 
L 513 -844 
Q 928 -128 1133 580 
Q 1338 1288 1338 2009 
Q 1338 2731 1133 3434 
Q 928 4138 513 4856 
z
" transform="scale(0.015625)"/>
       </defs>
       <use xlink:href="#DejaVuSans-33"/>
       <use xlink:href="#DejaVuSans-48" transform="translate(56.734375 0)"/>
       <use xlink:href="#DejaVuSans-55" transform="translate(118.265625 0)"/>
       <use xlink:href="#DejaVuSans-4f" transform="translate(159.375 0)"/>
       <use xlink:href="#DejaVuSans-18" transform="translate(187.15625 0)"/>
       <use xlink:href="#DejaVuSans-11" transform="translate(250.78125 0)"/>
       <use xlink:href="#DejaVuSans-17" transform="translate(282.5625 0)"/>
       <use xlink:href="#DejaVuSans-15" transform="translate(346.1875 0)"/>
       <use xlink:href="#DejaVuSans-11" transform="translate(409.8125 0)"/>
       <use xlink:href="#DejaVuSans-15" transform="translate(441.59375 0)"/>
       <use xlink:href="#DejaVuSans-3" transform="translate(505.21875 0)"/>
       <use xlink:href="#DejaVuSans-b" transform="translate(537 0)"/>
       <use xlink:href="#DejaVuSans-14" transform="translate(576.015625 0)"/>
       <use xlink:href="#DejaVuSans-13" transform="translate(639.640625 0)"/>
       <use xlink:href="#DejaVuSans-c" transform="translate(703.265625 0)"/>
      </g>
     </g>
    </g>
    <g id="ytick_2">
     <g id="line2d_6">
      <g>
       <use xlink:href="#m3e6ab2c5b0" x="118.375" y="213.83566" style="stroke: #000000; stroke-width: 0.8"/>
      </g>
     </g>
     <g id="text_7">
      <!-- Python3.14.2 (10) -->
      <g transform="translate(21.2 217.634878) scale(0.1 -0.1)">
       <defs>
        <path id="DejaVuSans-5c" d="M 2059 -325 
Q 1816 -950 1584 -1140 
Q 1353 -1331 966 -1331 
L 506 -1331 
L 506 -850 
L 844 -850 
Q 1081 -850 1212 -737 
Q 1344 -625 1503 -206 
L 1606 56 
L 191 3500 
L 800 3500 
L 1894 763 
L 2988 3500 
L 3597 3500 
L 2059 -325 
z
" transform="scale(0.015625)"/>
        <path id="DejaVuSans-57" d="M 1172 4494 
L 1172 3500 
L 2356 3500 
L 2356 3053 
L 1172 3053 
L 1172 1153 
Q 1172 725 1289 603 
Q 1406 481 1766 481 
L 2356 481 
L 2356 0 
L 1766 0 
Q 1100 0 847 248 
Q 594 497 594 1153 
L 594 3053 
L 172 3053 
L 172 3500 
L 594 3500 
L 594 4494 
L 1172 4494 
z
" transform="scale(0.015625)"/>
        <path id="DejaVuSans-4b" d="M 3513 2113 
L 3513 0 
L 2938 0 
L 2938 2094 
Q 2938 2591 2744 2837 
Q 2550 3084 2163 3084 
Q 1697 3084 1428 2787 
Q 1159 2491 1159 1978 
L 1159 0 
L 581 0 
L 581 4863 
L 1159 4863 
L 1159 2956 
Q 1366 3272 1645 3428 
Q 1925 3584 2291 3584 
Q 2894 3584 3203 3211 
Q 3513 2838 3513 2113 
z
" transform="scale(0.015625)"/>
        <path id="DejaVuSans-16" d="M 2597 2516 
Q 3050 2419 3304 2112 
Q 3559 1806 3559 1356 
Q 3559 666 3084 287 
Q 2609 -91 1734 -91 
Q 1441 -91 1130 -33 
Q 819 25 488 141 
L 488 750 
Q 750 597 1062 519 
Q 1375 441 1716 441 
Q 2309 441 2620 675 
Q 2931 909 2931 1356 
Q 2931 1769 2642 2001 
Q 2353 2234 1838 2234 
L 1294 2234 
L 1294 2753 
L 1863 2753 
Q 2328 2753 2575 2939 
Q 2822 3125 2822 3475 
Q 2822 3834 2567 4026 
Q 2313 4219 1838 4219 
Q 1578 4219 1281 4162 
Q 984 4106 628 3988 
L 628 4550 
Q 988 4650 1302 4700 
Q 1616 4750 1894 4750 
Q 2613 4750 3031 4423 
Q 3450 4097 3450 3541 
Q 3450 3153 3228 2886 
Q 3006 2619 2597 2516 
z
" transform="scale(0.015625)"/>
       </defs>
       <use xlink:href="#DejaVuSans-33"/>
       <use xlink:href="#DejaVuSans-5c" transform="translate(60.296875 0)"/>
       <use xlink:href="#DejaVuSans-57" transform="translate(119.484375 0)"/>
       <use xlink:href="#DejaVuSans-4b" transform="translate(158.6875 0)"/>
       <use xlink:href="#DejaVuSans-52" transform="translate(222.0625 0)"/>
       <use xlink:href="#DejaVuSans-51" transform="translate(283.25 0)"/>
       <use xlink:href="#DejaVuSans-16" transform="translate(346.625 0)"/>
       <use xlink:href="#DejaVuSans-11" transform="translate(410.25 0)"/>
       <use xlink:href="#DejaVuSans-14" transform="translate(442.03125 0)"/>
       <use xlink:href="#DejaVuSans-17" transform="translate(505.65625 0)"/>
       <use xlink:href="#DejaVuSans-11" transform="translate(569.28125 0)"/>
       <use xlink:href="#DejaVuSans-15" transform="translate(601.0625 0)"/>
       <use xlink:href="#DejaVuSans-3" transform="translate(664.6875 0)"/>
       <use xlink:href="#DejaVuSans-b" transform="translate(696.46875 0)"/>
       <use xlink:href="#DejaVuSans-14" transform="translate(735.484375 0)"/>
       <use xlink:href="#DejaVuSans-13" transform="translate(799.109375 0)"/>
       <use xlink:href="#DejaVuSans-c" transform="translate(862.734375 0)"/>
      </g>
     </g>
    </g>
    <g id="ytick_3">
     <g id="line2d_7">
      <g>
       <use xlink:href="#m3e6ab2c5b0" x="118.375" y="142.282622" style="stroke: #000000; stroke-width: 0.8"/>
      </g>
     </g>
     <g id="text_8">
      <!-- R4.3.3 (10) -->
      <g transform="translate(55.276563 146.08145) scale(0.1 -0.1)">
       <defs>
        <path id="DejaVuSans-35" d="M 2841 2188 
Q 3044 2119 3236 1894 
Q 3428 1669 3622 1275 
L 4263 0 
L 3584 0 
L 2988 1197 
Q 2756 1666 2539 1819 
Q 2322 1972 1947 1972 
L 1259 1972 
L 1259 0 
L 628 0 
L 628 4666 
L 2053 4666 
Q 2853 4666 3247 4331 
Q 3641 3997 3641 3322 
Q 3641 2881 3436 2590 
Q 3231 2300 2841 2188 
z
M 1259 4147 
L 1259 2491 
L 2053 2491 
Q 2509 2491 2742 2702 
Q 2975 2913 2975 3322 
Q 2975 3731 2742 3939 
Q 2509 4147 2053 4147 
L 1259 4147 
z
" transform="scale(0.015625)"/>
       </defs>
       <use xlink:href="#DejaVuSans-35"/>
       <use xlink:href="#DejaVuSans-17" transform="translate(69.484375 0)"/>
       <use xlink:href="#DejaVuSans-11" transform="translate(133.109375 0)"/>
       <use xlink:href="#DejaVuSans-16" transform="translate(164.890625 0)"/>
       <use xlink:href="#DejaVuSans-11" transform="translate(228.515625 0)"/>
       <use xlink:href="#DejaVuSans-16" transform="translate(260.296875 0)"/>
       <use xlink:href="#DejaVuSans-3" transform="translate(323.921875 0)"/>
       <use xlink:href="#DejaVuSans-b" transform="translate(355.703125 0)"/>
       <use xlink:href="#DejaVuSans-14" transform="translate(394.71875 0)"/>
       <use xlink:href="#DejaVuSans-13" transform="translate(458.34375 0)"/>
       <use xlink:href="#DejaVuSans-c" transform="translate(521.96875 0)"/>
      </g>
     </g>
    </g>
    <g id="ytick_4">
     <g id="line2d_8">
      <g>
       <use xlink:href="#m3e6ab2c5b0" x="118.375" y="70.729584" style="stroke: #000000; stroke-width: 0.8"/>
      </g>
     </g>
     <g id="text_9">
      <!-- Stats::LikeR (10) -->
      <g transform="translate(28.51875 74.528802) scale(0.1 -0.1)">
       <defs>
        <path id="DejaVuSans-36" d="M 3425 4513 
L 3425 3897 
Q 3066 4069 2747 4153 
Q 2428 4238 2131 4238 
Q 1616 4238 1336 4038 
Q 1056 3838 1056 3469 
Q 1056 3159 1242 3001 
Q 1428 2844 1947 2747 
L 2328 2669 
Q 3034 2534 3370 2195 
Q 3706 1856 3706 1288 
Q 3706 609 3251 259 
Q 2797 -91 1919 -91 
Q 1588 -91 1214 -16 
Q 841 59 441 206 
L 441 856 
Q 825 641 1194 531 
Q 1563 422 1919 422 
Q 2459 422 2753 634 
Q 3047 847 3047 1241 
Q 3047 1584 2836 1778 
Q 2625 1972 2144 2069 
L 1759 2144 
Q 1053 2284 737 2584 
Q 422 2884 422 3419 
Q 422 4038 858 4394 
Q 1294 4750 2059 4750 
Q 2388 4750 2728 4690 
Q 3069 4631 3425 4513 
z
" transform="scale(0.015625)"/>
        <path id="DejaVuSans-44" d="M 2194 1759 
Q 1497 1759 1228 1600 
Q 959 1441 959 1056 
Q 959 750 1161 570 
Q 1363 391 1709 391 
Q 2188 391 2477 730 
Q 2766 1069 2766 1631 
L 2766 1759 
L 2194 1759 
z
M 3341 1997 
L 3341 0 
L 2766 0 
L 2766 531 
Q 2569 213 2275 61 
Q 1981 -91 1556 -91 
Q 1019 -91 701 211 
Q 384 513 384 1019 
Q 384 1609 779 1909 
Q 1175 2209 1959 2209 
L 2766 2209 
L 2766 2266 
Q 2766 2663 2505 2880 
Q 2244 3097 1772 3097 
Q 1472 3097 1187 3025 
Q 903 2953 641 2809 
L 641 3341 
Q 956 3463 1253 3523 
Q 1550 3584 1831 3584 
Q 2591 3584 2966 3190 
Q 3341 2797 3341 1997 
z
" transform="scale(0.015625)"/>
        <path id="DejaVuSans-1d" d="M 750 794 
L 1409 794 
L 1409 0 
L 750 0 
L 750 794 
z
M 750 3309 
L 1409 3309 
L 1409 2516 
L 750 2516 
L 750 3309 
z
" transform="scale(0.015625)"/>
        <path id="DejaVuSans-2f" d="M 628 4666 
L 1259 4666 
L 1259 531 
L 3531 531 
L 3531 0 
L 628 0 
L 628 4666 
z
" transform="scale(0.015625)"/>
        <path id="DejaVuSans-4c" d="M 603 3500 
L 1178 3500 
L 1178 0 
L 603 0 
L 603 3500 
z
M 603 4863 
L 1178 4863 
L 1178 4134 
L 603 4134 
L 603 4863 
z
" transform="scale(0.015625)"/>
        <path id="DejaVuSans-4e" d="M 581 4863 
L 1159 4863 
L 1159 1991 
L 2875 3500 
L 3609 3500 
L 1753 1863 
L 3688 0 
L 2938 0 
L 1159 1709 
L 1159 0 
L 581 0 
L 581 4863 
z
" transform="scale(0.015625)"/>
       </defs>
       <use xlink:href="#DejaVuSans-36"/>
       <use xlink:href="#DejaVuSans-57" transform="translate(63.484375 0)"/>
       <use xlink:href="#DejaVuSans-44" transform="translate(102.6875 0)"/>
       <use xlink:href="#DejaVuSans-57" transform="translate(163.96875 0)"/>
       <use xlink:href="#DejaVuSans-56" transform="translate(203.171875 0)"/>
       <use xlink:href="#DejaVuSans-1d" transform="translate(255.265625 0)"/>
       <use xlink:href="#DejaVuSans-1d" transform="translate(288.953125 0)"/>
       <use xlink:href="#DejaVuSans-2f" transform="translate(322.640625 0)"/>
       <use xlink:href="#DejaVuSans-4c" transform="translate(378.359375 0)"/>
       <use xlink:href="#DejaVuSans-4e" transform="translate(406.140625 0)"/>
       <use xlink:href="#DejaVuSans-48" transform="translate(460.484375 0)"/>
       <use xlink:href="#DejaVuSans-35" transform="translate(522.015625 0)"/>
       <use xlink:href="#DejaVuSans-3" transform="translate(591.5 0)"/>
       <use xlink:href="#DejaVuSans-b" transform="translate(623.28125 0)"/>
       <use xlink:href="#DejaVuSans-14" transform="translate(662.296875 0)"/>
       <use xlink:href="#DejaVuSans-13" transform="translate(725.921875 0)"/>
       <use xlink:href="#DejaVuSans-c" transform="translate(789.546875 0)"/>
      </g>
     </g>
    </g>
    <g id="text_10">
     <!-- Language -->
     <g transform="translate(14.797656 202.735703) rotate(-90) scale(0.1 -0.1)">
      <defs>
       <path id="DejaVuSans-4a" d="M 2906 1791 
Q 2906 2416 2648 2759 
Q 2391 3103 1925 3103 
Q 1463 3103 1205 2759 
Q 947 2416 947 1791 
Q 947 1169 1205 825 
Q 1463 481 1925 481 
Q 2391 481 2648 825 
Q 2906 1169 2906 1791 
z
M 3481 434 
Q 3481 -459 3084 -895 
Q 2688 -1331 1869 -1331 
Q 1566 -1331 1297 -1286 
Q 1028 -1241 775 -1147 
L 775 -588 
Q 1028 -725 1275 -790 
Q 1522 -856 1778 -856 
Q 2344 -856 2625 -561 
Q 2906 -266 2906 331 
L 2906 616 
Q 2728 306 2450 153 
Q 2172 0 1784 0 
Q 1141 0 747 490 
Q 353 981 353 1791 
Q 353 2603 747 3093 
Q 1141 3584 1784 3584 
Q 2172 3584 2450 3431 
Q 2728 3278 2906 2969 
L 2906 3500 
L 3481 3500 
L 3481 434 
z
" transform="scale(0.015625)"/>
       <path id="DejaVuSans-58" d="M 544 1381 
L 544 3500 
L 1119 3500 
L 1119 1403 
Q 1119 906 1312 657 
Q 1506 409 1894 409 
Q 2359 409 2629 706 
Q 2900 1003 2900 1516 
L 2900 3500 
L 3475 3500 
L 3475 0 
L 2900 0 
L 2900 538 
Q 2691 219 2414 64 
Q 2138 -91 1772 -91 
Q 1169 -91 856 284 
Q 544 659 544 1381 
z
M 1991 3584 
L 1991 3584 
z
" transform="scale(0.015625)"/>
      </defs>
      <use xlink:href="#DejaVuSans-2f"/>
      <use xlink:href="#DejaVuSans-44" transform="translate(55.71875 0)"/>
      <use xlink:href="#DejaVuSans-51" transform="translate(117 0)"/>
      <use xlink:href="#DejaVuSans-4a" transform="translate(180.375 0)"/>
      <use xlink:href="#DejaVuSans-58" transform="translate(243.859375 0)"/>
      <use xlink:href="#DejaVuSans-44" transform="translate(307.234375 0)"/>
      <use xlink:href="#DejaVuSans-4a" transform="translate(368.515625 0)"/>
      <use xlink:href="#DejaVuSans-48" transform="translate(432 0)"/>
     </g>
    </g>
   </g>
   <g id="LineCollection_1">
    <path d="M 285.43702 294.332827 
L 285.43702 276.444568 
" clip-path="url(#p698fc28376)" style="fill: none; stroke: #1f77b4; stroke-width: 1.5"/>
    <path d="M 131.666268 222.779789 
L 131.666268 204.89153 
" clip-path="url(#p698fc28376)" style="fill: none; stroke: #1f77b4; stroke-width: 1.5"/>
    <path d="M 182.323154 151.226751 
L 182.323154 133.338492 
" clip-path="url(#p698fc28376)" style="fill: none; stroke: #1f77b4; stroke-width: 1.5"/>
    <path d="M 167.328586 79.673713 
L 167.328586 61.785454 
" clip-path="url(#p698fc28376)" style="fill: none; stroke: #1f77b4; stroke-width: 1.5"/>
   </g>
   <g id="LineCollection_2">
    <path d="M 271.231453 294.332827 
L 271.231453 276.444568 
" clip-path="url(#p698fc28376)" style="fill: none; stroke: #1f77b4; stroke-width: 1.5"/>
    <path d="M 126.121536 222.779789 
L 126.121536 204.89153 
" clip-path="url(#p698fc28376)" style="fill: none; stroke: #1f77b4; stroke-width: 1.5"/>
    <path d="M 130.074957 151.226751 
L 130.074957 133.338492 
" clip-path="url(#p698fc28376)" style="fill: none; stroke: #1f77b4; stroke-width: 1.5"/>
    <path d="M 165.480476 79.673713 
L 165.480476 61.785454 
" clip-path="url(#p698fc28376)" style="fill: none; stroke: #1f77b4; stroke-width: 1.5"/>
   </g>
   <g id="LineCollection_3">
    <path d="M 271.231453 285.388698 
L 285.43702 285.388698 
" clip-path="url(#p698fc28376)" style="fill: none; stroke: #1f77b4; stroke-width: 1.5"/>
    <path d="M 126.121536 213.83566 
L 131.666268 213.83566 
" clip-path="url(#p698fc28376)" style="fill: none; stroke: #1f77b4; stroke-width: 1.5"/>
    <path d="M 130.074957 142.282622 
L 182.323154 142.282622 
" clip-path="url(#p698fc28376)" style="fill: none; stroke: #1f77b4; stroke-width: 1.5"/>
    <path d="M 165.480476 70.729584 
L 167.328586 70.729584 
" clip-path="url(#p698fc28376)" style="fill: none; stroke: #1f77b4; stroke-width: 1.5"/>
   </g>
   <g id="LineCollection_4">
    <path d="M 272.287008 294.332827 
L 272.287008 276.444568 
" clip-path="url(#p698fc28376)" style="fill: none; stroke: #1f77b4; stroke-width: 1.5"/>
    <path d="M 127.184465 222.779789 
L 127.184465 204.89153 
" clip-path="url(#p698fc28376)" style="fill: none; stroke: #1f77b4; stroke-width: 1.5"/>
    <path d="M 130.538761 151.226751 
L 130.538761 133.338492 
" clip-path="url(#p698fc28376)" style="fill: none; stroke: #1f77b4; stroke-width: 1.5"/>
    <path d="M 166.159301 79.673713 
L 166.159301 61.785454 
" clip-path="url(#p698fc28376)" style="fill: none; stroke: #1f77b4; stroke-width: 1.5"/>
   </g>
   <g id="LineCollection_5">
    <path d="M 271.91472 285.388698 
L 272.51891 285.388698 
" clip-path="url(#p698fc28376)" style="fill: none; stroke: #000000; stroke-width: 5"/>
    <path d="M 126.39127 213.83566 
L 128.176192 213.83566 
" clip-path="url(#p698fc28376)" style="fill: none; stroke: #000000; stroke-width: 5"/>
    <path d="M 130.27665 142.282622 
L 130.977687 142.282622 
" clip-path="url(#p698fc28376)" style="fill: none; stroke: #000000; stroke-width: 5"/>
    <path d="M 166.034909 70.729584 
L 166.191288 70.729584 
" clip-path="url(#p698fc28376)" style="fill: none; stroke: #000000; stroke-width: 5"/>
   </g>
   <g id="LineCollection_6">
    <path d="M 271.91472 285.388698 
L 271.423372 285.388698 
" clip-path="url(#p698fc28376)" style="fill: none; stroke: #000000"/>
    <path d="M 126.39127 213.83566 
L 128.28967 213.83566 
" clip-path="url(#p698fc28376)" style="fill: none; stroke: #000000"/>
    <path d="M 130.27665 142.282622 
L 131.027444 142.282622 
" clip-path="url(#p698fc28376)" style="fill: none; stroke: #000000"/>
    <path d="M 166.034909 70.729584 
L 166.045571 70.729584 
" clip-path="url(#p698fc28376)" style="fill: none; stroke: #000000"/>
   </g>
   <g id="line2d_9">
    <defs>
     <path id="m0c4f4949c1" d="M 0 3 
C 0.795609 3 1.55874 2.683901 2.12132 2.12132 
C 2.683901 1.55874 3 0.795609 3 0 
C 3 -0.795609 2.683901 -1.55874 2.12132 -2.12132 
C 1.55874 -2.683901 0.795609 -3 0 -3 
C -0.795609 -3 -1.55874 -2.683901 -2.12132 -2.12132 
C -2.683901 -1.55874 -3 -0.795609 -3 0 
C -3 0.795609 -2.683901 1.55874 -2.12132 2.12132 
C -1.55874 2.683901 -0.795609 3 0 3 
z
" style="stroke: #ff0000"/>
    </defs>
    <g clip-path="url(#p698fc28376)">
     <use xlink:href="#m0c4f4949c1" x="273.411867" y="285.388698" style="fill: #ff0000; stroke: #ff0000"/>
    </g>
   </g>
   <g id="line2d_10">
    <g clip-path="url(#p698fc28376)">
     <use xlink:href="#m0c4f4949c1" x="127.665021" y="213.83566" style="fill: #ff0000; stroke: #ff0000"/>
    </g>
   </g>
   <g id="line2d_11">
    <g clip-path="url(#p698fc28376)">
     <use xlink:href="#m0c4f4949c1" x="135.853854" y="142.282622" style="fill: #ff0000; stroke: #ff0000"/>
    </g>
   </g>
   <g id="line2d_12">
    <g clip-path="url(#p698fc28376)">
     <use xlink:href="#m0c4f4949c1" x="166.165698" y="70.729584" style="fill: #ff0000; stroke: #ff0000"/>
    </g>
   </g>
   <g id="patch_3">
    <path d="M 118.375 315.798739 
L 118.375 40.319542 
" style="fill: none; stroke: #000000; stroke-width: 0.8; stroke-linejoin: miter; stroke-linecap: square"/>
   </g>
   <g id="patch_4">
    <path d="M 285.43702 315.798739 
L 285.43702 40.319542 
" style="fill: none; stroke: #000000; stroke-width: 0.8; stroke-linejoin: miter; stroke-linecap: square"/>
   </g>
   <g id="patch_5">
    <path d="M 118.375 315.798739 
L 285.43702 315.798739 
" style="fill: none; stroke: #000000; stroke-width: 0.8; stroke-linejoin: miter; stroke-linecap: square"/>
   </g>
   <g id="patch_6">
    <path d="M 118.375 40.319542 
L 285.43702 40.319542 
" style="fill: none; stroke: #000000; stroke-width: 0.8; stroke-linejoin: miter; stroke-linecap: square"/>
   </g>
   <g id="text_11">
    <!-- read_table -->
    <g transform="translate(170.196947 34.319542) scale(0.12 -0.12)">
     <defs>
      <path id="DejaVuSans-42" d="M 3263 -1063 
L 3263 -1509 
L -63 -1509 
L -63 -1063 
L 3263 -1063 
z
" transform="scale(0.015625)"/>
      <path id="DejaVuSans-45" d="M 3116 1747 
Q 3116 2381 2855 2742 
Q 2594 3103 2138 3103 
Q 1681 3103 1420 2742 
Q 1159 2381 1159 1747 
Q 1159 1113 1420 752 
Q 1681 391 2138 391 
Q 2594 391 2855 752 
Q 3116 1113 3116 1747 
z
M 1159 2969 
Q 1341 3281 1617 3432 
Q 1894 3584 2278 3584 
Q 2916 3584 3314 3078 
Q 3713 2572 3713 1747 
Q 3713 922 3314 415 
Q 2916 -91 2278 -91 
Q 1894 -91 1617 61 
Q 1341 213 1159 525 
L 1159 0 
L 581 0 
L 581 4863 
L 1159 4863 
L 1159 2969 
z
" transform="scale(0.015625)"/>
     </defs>
     <use xlink:href="#DejaVuSans-55"/>
     <use xlink:href="#DejaVuSans-48" transform="translate(38.90625 0)"/>
     <use xlink:href="#DejaVuSans-44" transform="translate(100.4375 0)"/>
     <use xlink:href="#DejaVuSans-47" transform="translate(161.71875 0)"/>
     <use xlink:href="#DejaVuSans-42" transform="translate(225.203125 0)"/>
     <use xlink:href="#DejaVuSans-57" transform="translate(275.203125 0)"/>
     <use xlink:href="#DejaVuSans-44" transform="translate(314.40625 0)"/>
     <use xlink:href="#DejaVuSans-45" transform="translate(375.6875 0)"/>
     <use xlink:href="#DejaVuSans-4f" transform="translate(439.171875 0)"/>
     <use xlink:href="#DejaVuSans-48" transform="translate(466.953125 0)"/>
    </g>
   </g>
  </g>
  <g id="axes_2">
   <g id="patch_7">
    <path d="M 294.9375 315.798739 
L 461.99952 315.798739 
L 461.99952 40.319542 
L 294.9375 40.319542 
z
" style="fill: #ffffff"/>
   </g>
   <g id="FillBetweenPolyCollection_5">
    <defs>
     <path id="mef3388e5bd" d="M 357.396504 -84.594114 
L 357.396504 -52.62753 
L 357.686357 -50.722563 
L 357.97621 -50.79815 
L 358.266063 -52.219021 
L 358.555916 -54.12537 
L 358.84577 -55.839362 
L 359.135623 -57.014279 
L 359.425476 -57.768802 
L 359.715329 -58.641198 
L 360.005182 -60.156099 
L 360.005182 -77.065546 
L 360.005182 -77.065546 
L 359.715329 -78.580447 
L 359.425476 -79.452842 
L 359.135623 -80.207366 
L 358.84577 -81.382283 
L 358.555916 -83.096275 
L 358.266063 -85.002623 
L 357.97621 -86.423495 
L 357.686357 -86.499082 
L 357.396504 -84.594114 
z
" style="stroke: #000000; stroke-opacity: 0.3"/>
    </defs>
    <g clip-path="url(#p1d48250231)">
     <use xlink:href="#mef3388e5bd" x="0" y="353.99952" style="fill: #1f77b4; fill-opacity: 0.3; stroke: #000000; stroke-opacity: 0.3"/>
    </g>
   </g>
   <g id="FillBetweenPolyCollection_6">
    <defs>
     <path id="m7d3d17bc05" d="M 343.66373 -158.05212 
L 343.66373 -122.275601 
L 348.003676 -123.363225 
L 352.343623 -128.026645 
L 356.68357 -133.121859 
L 361.023516 -136.687568 
L 365.363463 -138.544361 
L 369.70341 -139.125475 
L 374.043356 -138.862341 
L 378.383303 -138.280017 
L 382.72325 -137.991665 
L 382.72325 -142.336055 
L 382.72325 -142.336055 
L 378.383303 -142.047704 
L 374.043356 -141.465379 
L 369.70341 -141.202246 
L 365.363463 -141.783359 
L 361.023516 -143.640152 
L 356.68357 -147.205862 
L 352.343623 -152.301076 
L 348.003676 -156.964496 
L 343.66373 -158.05212 
z
" style="stroke: #000000; stroke-opacity: 0.3"/>
    </defs>
    <g clip-path="url(#p1d48250231)">
     <use xlink:href="#m7d3d17bc05" x="0" y="353.99952" style="fill: #1f77b4; fill-opacity: 0.3; stroke: #000000; stroke-opacity: 0.3"/>
    </g>
   </g>
   <g id="FillBetweenPolyCollection_7">
    <defs>
     <path id="mbf91490d6b" d="M 332.006318 -229.421764 
L 332.006318 -194.012032 
L 333.005403 -193.828639 
L 334.004488 -198.602889 
L 335.003573 -204.734706 
L 336.002658 -208.993338 
L 337.001743 -210.825284 
L 338.000828 -211.108569 
L 338.999913 -210.623274 
L 339.998998 -209.925215 
L 340.998083 -209.593709 
L 340.998083 -213.840088 
L 340.998083 -213.840088 
L 339.998998 -213.508582 
L 338.999913 -212.810522 
L 338.000828 -212.325227 
L 337.001743 -212.608513 
L 336.002658 -214.440459 
L 335.003573 -218.699091 
L 334.004488 -224.830907 
L 333.005403 -229.605158 
L 332.006318 -229.421764 
z
" style="stroke: #000000; stroke-opacity: 0.3"/>
    </defs>
    <g clip-path="url(#p1d48250231)">
     <use xlink:href="#mbf91490d6b" x="0" y="353.99952" style="fill: #1f77b4; fill-opacity: 0.3; stroke: #000000; stroke-opacity: 0.3"/>
    </g>
   </g>
   <g id="FillBetweenPolyCollection_8">
    <defs>
     <path id="m08c8291d25" d="M 294.9375 -298.634632 
L 294.9375 -267.905241 
L 295.001868 -265.381677 
L 295.066236 -265.588443 
L 295.130604 -267.794433 
L 295.194972 -271.168758 
L 295.25934 -274.978452 
L 295.323708 -278.178469 
L 295.388075 -279.876482 
L 295.452443 -280.223001 
L 295.516811 -280.265743 
L 295.516811 -286.27413 
L 295.516811 -286.27413 
L 295.452443 -286.316871 
L 295.388075 -286.66339 
L 295.323708 -288.361404 
L 295.25934 -291.561421 
L 295.194972 -295.371114 
L 295.130604 -298.74544 
L 295.066236 -300.95143 
L 295.001868 -301.158196 
L 294.9375 -298.634632 
z
" style="stroke: #000000; stroke-opacity: 0.3"/>
    </defs>
    <g clip-path="url(#p1d48250231)">
     <use xlink:href="#m08c8291d25" x="0" y="353.99952" style="fill: #1f77b4; fill-opacity: 0.3; stroke: #000000; stroke-opacity: 0.3"/>
    </g>
   </g>
   <g id="matplotlib.axis_3">
    <g id="xtick_5">
     <g id="line2d_13">
      <g>
       <use xlink:href="#md42531e5c9" x="325.213662" y="315.798739" style="stroke: #000000; stroke-width: 0.8"/>
      </g>
     </g>
     <g id="text_12">
      <!-- 0.0025 -->
      <g transform="translate(307.718349 330.396395) scale(0.1 -0.1)">
       <use xlink:href="#DejaVuSans-13"/>
       <use xlink:href="#DejaVuSans-11" transform="translate(63.625 0)"/>
       <use xlink:href="#DejaVuSans-13" transform="translate(95.40625 0)"/>
       <use xlink:href="#DejaVuSans-13" transform="translate(159.03125 0)"/>
       <use xlink:href="#DejaVuSans-15" transform="translate(222.65625 0)"/>
       <use xlink:href="#DejaVuSans-18" transform="translate(286.28125 0)"/>
      </g>
     </g>
    </g>
    <g id="xtick_6">
     <g id="line2d_14">
      <g>
       <use xlink:href="#md42531e5c9" x="362.480654" y="315.798739" style="stroke: #000000; stroke-width: 0.8"/>
      </g>
     </g>
     <g id="text_13">
      <!-- 0.0050 -->
      <g transform="translate(344.985342 330.396395) scale(0.1 -0.1)">
       <use xlink:href="#DejaVuSans-13"/>
       <use xlink:href="#DejaVuSans-11" transform="translate(63.625 0)"/>
       <use xlink:href="#DejaVuSans-13" transform="translate(95.40625 0)"/>
       <use xlink:href="#DejaVuSans-13" transform="translate(159.03125 0)"/>
       <use xlink:href="#DejaVuSans-18" transform="translate(222.65625 0)"/>
       <use xlink:href="#DejaVuSans-13" transform="translate(286.28125 0)"/>
      </g>
     </g>
    </g>
    <g id="xtick_7">
     <g id="line2d_15">
      <g>
       <use xlink:href="#md42531e5c9" x="399.747647" y="315.798739" style="stroke: #000000; stroke-width: 0.8"/>
      </g>
     </g>
     <g id="text_14">
      <!-- 0.0075 -->
      <g transform="translate(382.252334 330.396395) scale(0.1 -0.1)">
       <use xlink:href="#DejaVuSans-13"/>
       <use xlink:href="#DejaVuSans-11" transform="translate(63.625 0)"/>
       <use xlink:href="#DejaVuSans-13" transform="translate(95.40625 0)"/>
       <use xlink:href="#DejaVuSans-13" transform="translate(159.03125 0)"/>
       <use xlink:href="#DejaVuSans-1a" transform="translate(222.65625 0)"/>
       <use xlink:href="#DejaVuSans-18" transform="translate(286.28125 0)"/>
      </g>
     </g>
    </g>
    <g id="xtick_8">
     <g id="line2d_16">
      <g>
       <use xlink:href="#md42531e5c9" x="437.014639" y="315.798739" style="stroke: #000000; stroke-width: 0.8"/>
      </g>
     </g>
     <g id="text_15">
      <!-- 0.0100 -->
      <g transform="translate(419.519326 330.396395) scale(0.1 -0.1)">
       <use xlink:href="#DejaVuSans-13"/>
       <use xlink:href="#DejaVuSans-11" transform="translate(63.625 0)"/>
       <use xlink:href="#DejaVuSans-13" transform="translate(95.40625 0)"/>
       <use xlink:href="#DejaVuSans-14" transform="translate(159.03125 0)"/>
       <use xlink:href="#DejaVuSans-13" transform="translate(222.65625 0)"/>
       <use xlink:href="#DejaVuSans-13" transform="translate(286.28125 0)"/>
      </g>
     </g>
    </g>
    <g id="text_16">
     <!-- seconds -->
     <g transform="translate(358.03101 344.397176) scale(0.1 -0.1)">
      <use xlink:href="#DejaVuSans-56"/>
      <use xlink:href="#DejaVuSans-48" transform="translate(52.09375 0)"/>
      <use xlink:href="#DejaVuSans-46" transform="translate(113.625 0)"/>
      <use xlink:href="#DejaVuSans-52" transform="translate(168.609375 0)"/>
      <use xlink:href="#DejaVuSans-51" transform="translate(229.796875 0)"/>
      <use xlink:href="#DejaVuSans-47" transform="translate(293.171875 0)"/>
      <use xlink:href="#DejaVuSans-56" transform="translate(356.65625 0)"/>
     </g>
    </g>
   </g>
   <g id="matplotlib.axis_4">
    <g id="ytick_5">
     <g id="line2d_17">
      <g>
       <use xlink:href="#m3e6ab2c5b0" x="294.9375" y="285.388698" style="stroke: #000000; stroke-width: 0.8"/>
      </g>
     </g>
    </g>
    <g id="ytick_6">
     <g id="line2d_18">
      <g>
       <use xlink:href="#m3e6ab2c5b0" x="294.9375" y="213.83566" style="stroke: #000000; stroke-width: 0.8"/>
      </g>
     </g>
    </g>
    <g id="ytick_7">
     <g id="line2d_19">
      <g>
       <use xlink:href="#m3e6ab2c5b0" x="294.9375" y="142.282622" style="stroke: #000000; stroke-width: 0.8"/>
      </g>
     </g>
    </g>
    <g id="ytick_8">
     <g id="line2d_20">
      <g>
       <use xlink:href="#m3e6ab2c5b0" x="294.9375" y="70.729584" style="stroke: #000000; stroke-width: 0.8"/>
      </g>
     </g>
    </g>
   </g>
   <g id="LineCollection_7">
    <path d="M 360.005182 294.332827 
L 360.005182 276.444568 
" clip-path="url(#p1d48250231)" style="fill: none; stroke: #1f77b4; stroke-width: 1.5"/>
    <path d="M 382.72325 222.779789 
L 382.72325 204.89153 
" clip-path="url(#p1d48250231)" style="fill: none; stroke: #1f77b4; stroke-width: 1.5"/>
    <path d="M 340.998083 151.226751 
L 340.998083 133.338492 
" clip-path="url(#p1d48250231)" style="fill: none; stroke: #1f77b4; stroke-width: 1.5"/>
    <path d="M 295.516811 79.673713 
L 295.516811 61.785454 
" clip-path="url(#p1d48250231)" style="fill: none; stroke: #1f77b4; stroke-width: 1.5"/>
   </g>
   <g id="LineCollection_8">
    <path d="M 357.396504 294.332827 
L 357.396504 276.444568 
" clip-path="url(#p1d48250231)" style="fill: none; stroke: #1f77b4; stroke-width: 1.5"/>
    <path d="M 343.66373 222.779789 
L 343.66373 204.89153 
" clip-path="url(#p1d48250231)" style="fill: none; stroke: #1f77b4; stroke-width: 1.5"/>
    <path d="M 332.006318 151.226751 
L 332.006318 133.338492 
" clip-path="url(#p1d48250231)" style="fill: none; stroke: #1f77b4; stroke-width: 1.5"/>
    <path d="M 294.9375 79.673713 
L 294.9375 61.785454 
" clip-path="url(#p1d48250231)" style="fill: none; stroke: #1f77b4; stroke-width: 1.5"/>
   </g>
   <g id="LineCollection_9">
    <path d="M 357.396504 285.388698 
L 360.005182 285.388698 
" clip-path="url(#p1d48250231)" style="fill: none; stroke: #1f77b4; stroke-width: 1.5"/>
    <path d="M 343.66373 213.83566 
L 382.72325 213.83566 
" clip-path="url(#p1d48250231)" style="fill: none; stroke: #1f77b4; stroke-width: 1.5"/>
    <path d="M 332.006318 142.282622 
L 340.998083 142.282622 
" clip-path="url(#p1d48250231)" style="fill: none; stroke: #1f77b4; stroke-width: 1.5"/>
    <path d="M 294.9375 70.729584 
L 295.516811 70.729584 
" clip-path="url(#p1d48250231)" style="fill: none; stroke: #1f77b4; stroke-width: 1.5"/>
   </g>
   <g id="LineCollection_10">
    <path d="M 358.261917 294.332827 
L 358.261917 276.444568 
" clip-path="url(#p1d48250231)" style="fill: none; stroke: #1f77b4; stroke-width: 1.5"/>
    <path d="M 344.384488 222.779789 
L 344.384488 204.89153 
" clip-path="url(#p1d48250231)" style="fill: none; stroke: #1f77b4; stroke-width: 1.5"/>
    <path d="M 332.510994 151.226751 
L 332.510994 133.338492 
" clip-path="url(#p1d48250231)" style="fill: none; stroke: #1f77b4; stroke-width: 1.5"/>
    <path d="M 295.056561 79.673713 
L 295.056561 61.785454 
" clip-path="url(#p1d48250231)" style="fill: none; stroke: #1f77b4; stroke-width: 1.5"/>
   </g>
   <g id="LineCollection_11">
    <path d="M 357.553771 285.388698 
L 359.108671 285.388698 
" clip-path="url(#p1d48250231)" style="fill: none; stroke: #000000; stroke-width: 5"/>
    <path d="M 344.317516 213.83566 
L 345.015888 213.83566 
" clip-path="url(#p1d48250231)" style="fill: none; stroke: #000000; stroke-width: 5"/>
    <path d="M 332.264876 142.282622 
L 333.074312 142.282622 
" clip-path="url(#p1d48250231)" style="fill: none; stroke: #000000; stroke-width: 5"/>
    <path d="M 294.95527 70.729584 
L 295.174733 70.729584 
" clip-path="url(#p1d48250231)" style="fill: none; stroke: #000000; stroke-width: 5"/>
   </g>
   <g id="LineCollection_12">
    <path d="M 357.553771 285.388698 
L 358.114424 285.388698 
" clip-path="url(#p1d48250231)" style="fill: none; stroke: #000000"/>
    <path d="M 344.317516 213.83566 
L 345.179348 213.83566 
" clip-path="url(#p1d48250231)" style="fill: none; stroke: #000000"/>
    <path d="M 332.264876 142.282622 
L 332.283535 142.282622 
" clip-path="url(#p1d48250231)" style="fill: none; stroke: #000000"/>
    <path d="M 294.95527 70.729584 
L 294.9375 70.729584 
" clip-path="url(#p1d48250231)" style="fill: none; stroke: #000000"/>
   </g>
   <g id="line2d_21">
    <g clip-path="url(#p1d48250231)">
     <use xlink:href="#m0c4f4949c1" x="358.413675" y="285.388698" style="fill: #ff0000; stroke: #ff0000"/>
    </g>
   </g>
   <g id="line2d_22">
    <g clip-path="url(#p1d48250231)">
     <use xlink:href="#m0c4f4949c1" x="349.319525" y="213.83566" style="fill: #ff0000; stroke: #ff0000"/>
    </g>
   </g>
   <g id="line2d_23">
    <g clip-path="url(#p1d48250231)">
     <use xlink:href="#m0c4f4949c1" x="333.38778" y="142.282622" style="fill: #ff0000; stroke: #ff0000"/>
    </g>
   </g>
   <g id="line2d_24">
    <g clip-path="url(#p1d48250231)">
     <use xlink:href="#m0c4f4949c1" x="295.098499" y="70.729584" style="fill: #ff0000; stroke: #ff0000"/>
    </g>
   </g>
   <g id="patch_8">
    <path d="M 294.9375 315.798739 
L 294.9375 40.319542 
" style="fill: none; stroke: #000000; stroke-width: 0.8; stroke-linejoin: miter; stroke-linecap: square"/>
   </g>
   <g id="patch_9">
    <path d="M 461.99952 315.798739 
L 461.99952 40.319542 
" style="fill: none; stroke: #000000; stroke-width: 0.8; stroke-linejoin: miter; stroke-linecap: square"/>
   </g>
   <g id="patch_10">
    <path d="M 294.9375 315.798739 
L 461.99952 315.798739 
" style="fill: none; stroke: #000000; stroke-width: 0.8; stroke-linejoin: miter; stroke-linecap: square"/>
   </g>
   <g id="patch_11">
    <path d="M 294.9375 40.319542 
L 461.99952 40.319542 
" style="fill: none; stroke: #000000; stroke-width: 0.8; stroke-linejoin: miter; stroke-linecap: square"/>
   </g>
   <g id="text_17">
    <!-- write_table -->
    <g transform="translate(345.18726 34.319542) scale(0.12 -0.12)">
     <defs>
      <path id="DejaVuSans-5a" d="M 269 3500 
L 844 3500 
L 1563 769 
L 2278 3500 
L 2956 3500 
L 3675 769 
L 4391 3500 
L 4966 3500 
L 4050 0 
L 3372 0 
L 2619 2869 
L 1863 0 
L 1184 0 
L 269 3500 
z
" transform="scale(0.015625)"/>
     </defs>
     <use xlink:href="#DejaVuSans-5a"/>
     <use xlink:href="#DejaVuSans-55" transform="translate(81.78125 0)"/>
     <use xlink:href="#DejaVuSans-4c" transform="translate(122.890625 0)"/>
     <use xlink:href="#DejaVuSans-57" transform="translate(150.671875 0)"/>
     <use xlink:href="#DejaVuSans-48" transform="translate(189.875 0)"/>
     <use xlink:href="#DejaVuSans-42" transform="translate(251.40625 0)"/>
     <use xlink:href="#DejaVuSans-57" transform="translate(301.40625 0)"/>
     <use xlink:href="#DejaVuSans-44" transform="translate(340.609375 0)"/>
     <use xlink:href="#DejaVuSans-45" transform="translate(401.890625 0)"/>
     <use xlink:href="#DejaVuSans-4f" transform="translate(465.375 0)"/>
     <use xlink:href="#DejaVuSans-48" transform="translate(493.15625 0)"/>
    </g>
   </g>
  </g>
  <g id="text_18">
   <!-- Reading/Writing file times -->
   <g transform="translate(157.16226 16.318125) scale(0.12 -0.12)">
    <defs>
     <path id="DejaVuSans-12" d="M 1625 4666 
L 2156 4666 
L 531 -594 
L 0 -594 
L 1625 4666 
z
" transform="scale(0.015625)"/>
     <path id="DejaVuSans-3a" d="M 213 4666 
L 850 4666 
L 1831 722 
L 2809 4666 
L 3519 4666 
L 4500 722 
L 5478 4666 
L 6119 4666 
L 4947 0 
L 4153 0 
L 3169 4050 
L 2175 0 
L 1381 0 
L 213 4666 
z
" transform="scale(0.015625)"/>
     <path id="DejaVuSans-13af" d="M 3431 3500 
L 3431 0 
L 2853 0 
L 2853 3053 
L 1275 3053 
L 1275 0 
L 697 0 
L 697 3053 
L 147 3053 
L 147 3500 
L 697 3500 
L 697 3744 
Q 697 4316 967 4589 
Q 1238 4863 1797 4863 
L 2375 4863 
L 2375 4384 
L 1825 4384 
Q 1516 4384 1395 4259 
Q 1275 4134 1275 3809 
L 1275 3500 
L 3431 3500 
z
M 2853 4856 
L 3431 4856 
L 3431 4128 
L 2853 4128 
L 2853 4856 
z
" transform="scale(0.015625)"/>
     <path id="DejaVuSans-50" d="M 3328 2828 
Q 3544 3216 3844 3400 
Q 4144 3584 4550 3584 
Q 5097 3584 5394 3201 
Q 5691 2819 5691 2113 
L 5691 0 
L 5113 0 
L 5113 2094 
Q 5113 2597 4934 2840 
Q 4756 3084 4391 3084 
Q 3944 3084 3684 2787 
Q 3425 2491 3425 1978 
L 3425 0 
L 2847 0 
L 2847 2094 
Q 2847 2600 2669 2842 
Q 2491 3084 2119 3084 
Q 1678 3084 1418 2786 
Q 1159 2488 1159 1978 
L 1159 0 
L 581 0 
L 581 3500 
L 1159 3500 
L 1159 2956 
Q 1356 3278 1631 3431 
Q 1906 3584 2284 3584 
Q 2666 3584 2933 3390 
Q 3200 3197 3328 2828 
z
" transform="scale(0.015625)"/>
    </defs>
    <use xlink:href="#DejaVuSans-35"/>
    <use xlink:href="#DejaVuSans-48" transform="translate(65 0)"/>
    <use xlink:href="#DejaVuSans-44" transform="translate(126.53125 0)"/>
    <use xlink:href="#DejaVuSans-47" transform="translate(187.8125 0)"/>
    <use xlink:href="#DejaVuSans-4c" transform="translate(251.296875 0)"/>
    <use xlink:href="#DejaVuSans-51" transform="translate(279.078125 0)"/>
    <use xlink:href="#DejaVuSans-4a" transform="translate(342.453125 0)"/>
    <use xlink:href="#DejaVuSans-12" transform="translate(405.9375 0)"/>
    <use xlink:href="#DejaVuSans-3a" transform="translate(439.625 0)"/>
    <use xlink:href="#DejaVuSans-55" transform="translate(534.015625 0)"/>
    <use xlink:href="#DejaVuSans-4c" transform="translate(575.125 0)"/>
    <use xlink:href="#DejaVuSans-57" transform="translate(602.90625 0)"/>
    <use xlink:href="#DejaVuSans-4c" transform="translate(642.109375 0)"/>
    <use xlink:href="#DejaVuSans-51" transform="translate(669.890625 0)"/>
    <use xlink:href="#DejaVuSans-4a" transform="translate(733.265625 0)"/>
    <use xlink:href="#DejaVuSans-3" transform="translate(796.75 0)"/>
    <use xlink:href="#DejaVuSans-13af" transform="translate(828.53125 0)"/>
    <use xlink:href="#DejaVuSans-4f" transform="translate(891.515625 0)"/>
    <use xlink:href="#DejaVuSans-48" transform="translate(919.296875 0)"/>
    <use xlink:href="#DejaVuSans-3" transform="translate(980.828125 0)"/>
    <use xlink:href="#DejaVuSans-57" transform="translate(1012.609375 0)"/>
    <use xlink:href="#DejaVuSans-4c" transform="translate(1051.8125 0)"/>
    <use xlink:href="#DejaVuSans-50" transform="translate(1079.59375 0)"/>
    <use xlink:href="#DejaVuSans-48" transform="translate(1177 0)"/>
    <use xlink:href="#DejaVuSans-56" transform="translate(1238.53125 0)"/>
   </g>
  </g>
 </g>
 <defs>
  <clipPath id="p698fc28376">
   <rect x="118.375" y="40.319542" width="167.06202" height="275.479196"/>
  </clipPath>
  <clipPath id="p1d48250231">
   <rect x="294.9375" y="40.319542" width="167.06202" height="275.479196"/>
  </clipPath>
 </defs>
</svg>
